<svg width="97" height="97" viewBox="0 0 97 97" fill="none" xmlns="http://www.w3.org/2000/svg">
<path d="M96.3402 30.4525C96.224 30.1387 96.0204 29.8648 95.7536 29.663C95.4867 29.4612 95.1677 29.3399 94.8342 29.3135L87.2622 28.7245L86.6732 21.1525C86.6405 20.7366 86.4604 20.3461 86.1655 20.0512C85.8705 19.7563 85.48 19.5762 85.0642 19.5435L77.4932 18.9535L76.9032 11.3825C76.8707 10.9665 76.6908 10.5757 76.3958 10.2806C76.1008 9.98543 75.7102 9.80525 75.2942 9.77246L67.7232 9.18346L67.1332 1.61346C67.1071 1.27989 66.9859 0.960792 66.784 0.693984C66.5821 0.427176 66.308 0.223842 65.994 0.108079C65.6801 -0.00768431 65.3396 -0.0310254 65.0128 0.040823C64.686 0.112672 64.3866 0.276698 64.1502 0.513463L0.512221 64.1495C0.275875 64.386 0.112222 64.6854 0.0406141 65.012C-0.0309938 65.3387 -0.00756181 65.679 0.10814 65.9928C0.223842 66.3065 0.426974 66.5806 0.693515 66.7826C0.960056 66.9845 1.27886 67.106 1.61222 67.1325L9.18022 67.7225L9.77322 75.2895C9.80555 75.7053 9.98532 76.0959 10.2801 76.3909C10.575 76.6859 10.9654 76.8659 11.3812 76.8985L18.9522 77.4885L19.5432 85.0595C19.5755 85.4754 19.7553 85.8661 20.0501 86.1613C20.3449 86.4564 20.7353 86.6366 21.1512 86.6695L28.7222 87.2595L29.3132 94.8305C29.3395 95.1638 29.4607 95.4827 29.6626 95.7493C29.8644 96.0159 30.1384 96.2191 30.4522 96.3348C30.7659 96.4506 31.1062 96.474 31.4329 96.4023C31.7595 96.3307 32.0588 96.1669 32.2952 95.9305L95.9352 32.2905C96.172 32.054 96.3359 31.7546 96.4077 31.4278C96.4795 31.1009 96.4561 30.7604 96.3402 30.4465M52.9902 70.2895L50.3742 67.6755C50.2128 67.5083 50.0197 67.3749 49.8063 67.2832C49.5928 67.1914 49.3631 67.1431 49.1308 67.141C48.8984 67.139 48.668 67.1832 48.4529 67.2711C48.2378 67.3591 48.0424 67.489 47.878 67.6533C47.7137 67.8175 47.5837 68.0129 47.4957 68.228C47.4076 68.443 47.3633 68.6734 47.3653 68.9058C47.3673 69.1382 47.4155 69.3678 47.5072 69.5813C47.5988 69.7949 47.7321 69.988 47.8992 70.1495L50.5152 72.7665L32.5072 90.7735L32.0952 85.4995C32.0633 85.0834 31.8837 84.6925 31.5888 84.3972C31.294 84.102 30.9032 83.9219 30.4872 83.8895L22.9162 83.2995L22.3252 75.7275C22.2925 75.3118 22.1126 74.9214 21.8179 74.6265C21.5231 74.3316 21.1329 74.1514 20.7172 74.1185L13.1462 73.5285L12.5552 65.9575C12.5227 65.5417 12.3429 65.1512 12.0481 64.8563C11.7533 64.5613 11.3629 64.3812 10.9472 64.3485L5.67422 63.9365L23.6802 45.9315L25.9802 48.2315C26.1416 48.3986 26.3347 48.532 26.5482 48.6238C26.7617 48.7155 26.9913 48.7638 27.2237 48.7659C27.456 48.768 27.6865 48.7237 27.9016 48.6358C28.1166 48.5478 28.3121 48.4179 28.4764 48.2537C28.6408 48.0894 28.7707 47.894 28.8588 47.679C28.9468 47.4639 28.9911 47.2335 28.9892 47.0011C28.9872 46.7688 28.939 46.5391 28.8473 46.3256C28.7556 46.1121 28.6223 45.9189 28.4552 45.7575L26.1552 43.4575L63.9372 5.67446L64.3492 10.9475C64.3822 11.3634 64.5625 11.7539 64.8576 12.0488C65.1527 12.3437 65.5433 12.5237 65.9592 12.5565L73.5292 13.1455L74.1192 20.7175C74.1518 21.1334 74.3318 21.524 74.6267 21.8189C74.9217 22.1139 75.3123 22.2939 75.7282 22.3265L83.3002 22.9165L83.8892 30.4875C83.922 30.9036 84.1021 31.2943 84.3973 31.5894C84.6924 31.8846 85.0831 32.0647 85.4992 32.0975L90.7742 32.5085L52.9902 70.2895Z" fill="#2A4BC0"/>
<path d="M41.889 59.1895C41.7264 59.027 41.5335 58.898 41.3212 58.8101C41.1089 58.7221 40.8813 58.6769 40.6515 58.6769C40.4216 58.6769 40.1941 58.7221 39.9817 58.8101C39.7694 58.898 39.5765 59.027 39.414 59.1895C39.2514 59.352 39.1225 59.5449 39.0346 59.7572C38.9466 59.9696 38.9014 60.1971 38.9014 60.427C38.9014 60.6568 38.9466 60.8844 39.0346 61.0967C39.1225 61.309 39.2514 61.502 39.414 61.6645L42.95 65.2005C43.1125 65.363 43.3054 65.4919 43.5177 65.5798C43.7301 65.6678 43.9576 65.7131 44.1875 65.7131C44.4173 65.7131 44.6449 65.6678 44.8572 65.5798C45.0695 65.4919 45.2624 65.363 45.425 65.2005C45.5875 65.038 45.7164 64.845 45.8043 64.6327C45.8923 64.4204 45.9375 64.1928 45.9375 63.963C45.9375 63.7331 45.8923 63.5056 45.8043 63.2932C45.7164 63.0809 45.5875 62.888 45.425 62.7255L41.889 59.1895Z" fill="#2A4BC0"/>
<path d="M34.464 56.7155C34.7922 57.0437 35.2373 57.2281 35.7015 57.2281C36.1656 57.2281 36.6108 57.0437 36.939 56.7155C37.2672 56.3873 37.4516 55.9421 37.4516 55.478C37.4516 55.0138 37.2672 54.5687 36.939 54.2405L33.403 50.7045C33.0746 50.3763 32.6294 50.1919 32.1651 50.192C31.7009 50.1921 31.2557 50.3766 30.9275 50.705C30.5993 51.0333 30.4149 51.4786 30.415 51.9428C30.4151 52.4071 30.5996 52.8523 30.928 53.1805L34.464 56.7155Z" fill="#2A4BC0"/>
<path d="M40.4581 44.1254C40.688 44.1258 40.9156 44.0807 41.1279 43.9926C41.3402 43.9046 41.533 43.7754 41.6951 43.6124L62.4791 22.8294C62.8073 22.5012 62.9917 22.0561 62.9917 21.5919C62.9917 21.1278 62.8073 20.6827 62.4791 20.3544C62.1509 20.0262 61.7058 19.8419 61.2416 19.8419C60.7775 19.8419 60.3323 20.0262 60.0041 20.3544L39.2211 41.1384C38.9765 41.3832 38.81 41.6949 38.7426 42.0343C38.6751 42.3736 38.7098 42.7254 38.8421 43.045C38.9745 43.3647 39.1987 43.6379 39.4863 43.8302C39.7739 44.0225 40.1121 44.1253 40.4581 44.1254Z" fill="#2A4BC0"/>
<path d="M69.8848 27.7625C69.7224 27.5998 69.5295 27.4708 69.3172 27.3828C69.1048 27.2948 68.8772 27.2495 68.6474 27.2495C68.4175 27.2495 68.1899 27.2948 67.9775 27.3828C67.7652 27.4708 67.5723 27.5998 67.4098 27.7625L46.6268 48.5455C46.2986 48.8737 46.1143 49.3188 46.1143 49.783C46.1143 50.2471 46.2986 50.6923 46.6268 51.0205C46.9551 51.3487 47.4002 51.5331 47.8643 51.5331C48.3285 51.5331 48.7736 51.3487 49.1018 51.0205L69.8848 30.2375C70.0475 30.0751 70.1765 29.8821 70.2645 29.6698C70.3526 29.4575 70.3979 29.2299 70.3979 29C70.3979 28.7701 70.3526 28.5425 70.2645 28.3302C70.1765 28.1178 70.0475 27.9249 69.8848 27.7625Z" fill="#2A4BC0"/>
<path d="M74.8185 35.1694L54.0355 55.9524C53.8683 56.1138 53.7349 56.3069 53.6432 56.5204C53.5514 56.7339 53.5031 56.9635 53.501 57.1959C53.499 57.4283 53.5432 57.6587 53.6312 57.8738C53.7191 58.0889 53.849 58.2843 54.0133 58.4486C54.1776 58.613 54.3729 58.743 54.588 58.831C54.803 58.919 55.0335 58.9634 55.2658 58.9614C55.4982 58.9594 55.7278 58.9112 55.9414 58.8195C56.1549 58.7278 56.348 58.5946 56.5095 58.4274L77.2935 37.6444C77.6217 37.3162 77.8061 36.8711 77.8061 36.4069C77.8061 35.9428 77.6217 35.4977 77.2935 35.1694C76.9653 34.8412 76.5201 34.6569 76.056 34.6569C75.5918 34.6569 75.1467 34.8412 74.8185 35.1694Z" fill="#2A4BC0"/>
</svg>
