<svg width="43" height="75" viewBox="0 0 43 75" fill="none" xmlns="http://www.w3.org/2000/svg">
<path d="M21.72 56.2409C21.8897 56.2409 22.2291 56.0955 22.2291 55.8047L24.2653 33.2647C24.2653 32.9738 24.0956 32.8284 23.7563 32.8284C23.4169 32.8284 23.2472 32.9738 23.2472 33.2647L21.2109 55.8047C21.2109 55.9501 21.3806 56.2409 21.72 56.2409Z" fill="#3531A1"/>
<path d="M24.2661 75C24.6055 75 24.7752 74.7092 24.7752 74.5637L19.6845 48.5337C19.6845 48.2429 19.3452 48.0974 19.1755 48.2429C18.8361 48.2429 18.6664 48.5337 18.8361 48.6791L23.9268 74.7092C23.7571 74.8546 23.9268 75 24.2661 75Z" fill="#3531A1"/>
<path d="M41.5737 66.2748C41.9131 66.2748 42.0828 65.984 42.0828 65.8386L36.9922 39.8085C36.9922 39.5177 36.6528 39.3723 36.4831 39.5177C36.1437 39.5177 35.974 39.8085 36.1437 39.954L41.2344 65.984C41.0647 66.1294 41.2344 66.2748 41.5737 66.2748Z" fill="#3531A1"/>
<path d="M0.169699 45.3345L0.509072 45.4799L0.678745 45.1891L26.6412 32.9738L30.544 1.41783V0.98158H30.7137L30.8834 0.3999L30.544 0.109055C30.544 0.109055 30.544 0.109055 30.3743 0.109055L4.24222 13.0514C4.07253 13.1968 3.90285 13.3422 3.90285 13.6331L3.73315 15.0873L0 45.0436C0 45.1891 0.169699 45.3345 0.169699 45.3345Z" fill="#06207C"/>
<path d="M1.01748 45.6253L27.1496 33.2647L30.8827 2.14494L31.0524 1.56326L31.2221 0.690751C31.2221 0.545332 31.0524 0.545334 31.0524 0.545334L30.8827 0.690751L4.75063 13.6331L4.41126 15.5235L0.678081 45.4799C0.508392 45.4799 0.847791 45.6253 1.01748 45.6253Z" fill="#2A4BC0"/>
<path d="M3.7334 15.0873L4.24247 15.3781L29.8655 1.8541L30.5443 1.56325V1.127H30.714L30.8836 0.54532L30.5443 0.254486C30.5443 0.254486 30.5442 0.254486 30.3746 0.254486L4.24247 13.1968C4.07278 13.3422 3.9031 13.4876 3.9031 13.7785L3.7334 15.0873Z" fill="#FF6279"/>
<path d="M4.24219 15.3781L30.8833 2.14493L31.053 1.99951L30.8833 1.56325L30.544 0.690735L4.41189 13.6331L4.24219 15.3781Z" fill="url(#paint0_linear_10_14751)"/>
<path d="M4.4113 13.6331L5.09004 15.8144L11.7079 50.715C11.7079 50.8604 11.8776 51.0058 12.0473 51.1513L13.0654 51.5875L13.5745 50.715L38.5188 38.3544C38.8582 38.2089 39.0278 37.9181 38.8582 37.6273L31.9009 1.56326V1.41784L32.2403 0.545327L31.3918 0.109065C31.2222 -0.0363548 31.0525 -0.0363548 30.7131 0.109065L4.75067 12.906C4.41129 13.0514 4.24161 13.3422 4.4113 13.6331Z" fill="#06207C"/>
<path d="M5.25879 14.0693L6.10723 16.396L12.7251 51.1513C12.8948 51.5875 13.4039 51.7329 13.7432 51.4421L39.536 38.7906C39.8754 38.6452 40.045 38.3544 39.8753 38.0635L33.2575 2.87204L32.5787 0.690749C32.409 0.39991 32.0696 0.254495 31.7303 0.399914L5.59816 13.3422C5.25878 13.4877 5.25879 13.7785 5.25879 14.0693Z" fill="url(#paint1_linear_10_14751)"/>
<path d="M4.4113 13.6331L5.09004 15.8144L6.10819 16.396L32.0706 1.7087V1.56328L32.41 0.690762L31.5616 0.254511C31.3919 0.109092 31.2222 0.109092 30.8828 0.254511L4.75067 12.906C4.41129 13.0514 4.24161 13.3422 4.4113 13.6331Z" fill="#FF6279"/>
<path d="M5.25879 14.0693L6.10723 16.396L33.0878 3.01746L33.2575 2.87204L32.5787 0.690749C32.409 0.39991 32.0696 0.254495 31.7302 0.399914L5.59816 13.3422C5.25878 13.4877 5.25879 13.7785 5.25879 14.0693Z" fill="url(#paint2_linear_10_14751)"/>
<path d="M3.22487 64.8206C3.39456 64.8206 3.73394 64.6752 3.73394 64.3844L5.77021 41.8444C5.77021 41.5536 5.60054 41.4081 5.26116 41.4081C4.92178 41.4081 4.75209 41.5536 4.75209 41.8444L2.71582 64.3844C2.71582 64.6752 2.88549 64.8206 3.22487 64.8206Z" fill="#3531A1"/>
<path d="M15.6115 25.5574L10.5208 28.0296L10.0117 26.2845L15.1024 23.8124L15.6115 25.5574Z" fill="white"/>
<path d="M34.1082 20.4678L11.3699 31.9559L11.2002 31.8105L33.9385 20.3224L34.1082 20.4678Z" fill="white"/>
<path d="M33.2588 16.6869L10.5205 28.175V27.8841L33.2588 16.396V16.6869Z" fill="white"/>
<path d="M32.5799 12.7606L9.67188 24.3941V24.1033L32.5799 12.6151V12.7606Z" fill="white"/>
<path d="M31.7322 8.97966L8.82422 20.4678V20.1769L31.7322 8.68881V8.97966Z" fill="white"/>
<path d="M34.4473 22.5036L11.709 33.9918V33.7009L34.4473 22.2128V22.5036Z" fill="white"/>
<path d="M33.7684 18.7227L10.8604 30.2109V29.92L33.5987 18.4319L33.7684 18.7227Z" fill="white"/>
<path d="M32.9198 14.7964L10.1814 26.2846L10.0117 26.1391L32.9198 14.651V14.7964Z" fill="white"/>
<path d="M32.2408 11.0155L9.33279 22.5036L9.16309 22.2128L32.2408 10.7247V11.0155Z" fill="white"/>
<path d="M29.3567 26.8662H29.187L25.9629 10.7247H26.3023L29.3567 26.8662Z" fill="white"/>
<path d="M17.1387 32.9738L16.969 33.1193L13.5752 16.9777H13.7449L17.1387 32.9738Z" fill="white"/>
<path d="M12.2175 35.5914H12.0479L8.48438 19.5953L8.82375 19.4498L12.2175 35.5914Z" fill="white"/>
<path d="M31.9019 7.81628L34.9563 23.9578L34.7866 24.1033L31.5625 7.9617L31.9019 7.81628Z" fill="white"/>
<path d="M23.2473 29.92L23.0776 30.0654L19.8535 13.9239L20.0232 13.7785L23.2473 29.92Z" fill="white"/>
<path d="M30.2048 10.143V10.2884L30.0352 10.4338V10.2884L30.2048 10.143Z" fill="white"/>
<path d="M31.2234 9.70676V9.85217L30.375 10.2884V10.143L31.2234 9.70676Z" fill="white"/>
<path d="M29.8656 10.5793L28.6777 11.0155L29.8656 10.4339V10.5793Z" fill="white"/>
<path d="M28.5076 11.1609L27.8289 11.5972L27.6592 11.4518L28.5076 11.0155V11.1609Z" fill="white"/>
<path d="M27.6594 11.5972L27.1504 11.888V11.7426L27.4898 11.5972H27.6594Z" fill="white"/>
<path d="M30.2047 10.8701L28.5078 11.5972L30.035 10.7247L30.2047 10.8701Z" fill="white"/>
<path d="M27.6597 12.1789L27.3203 12.3243V12.1789L27.49 12.0335L27.6597 12.1789Z" fill="white"/>
<path d="M28.3379 11.7426L27.6592 12.0335V11.888L28.3379 11.5972V11.7426Z" fill="white"/>
<path d="M31.2232 10.143V10.2884L30.2051 10.7247V10.5793L31.2232 10.143Z" fill="white"/>
<path d="M31.2233 9.99759L29.5264 10.8701V10.7247L31.2233 9.99759Z" fill="white"/>
<path d="M29.3568 11.0155L28.1689 11.5972V11.4518L29.3568 10.8701V11.0155Z" fill="white"/>
<path d="M30.0355 11.1609L28.8477 11.7426V11.5972L30.0355 11.0155V11.1609Z" fill="white"/>
<path d="M28.678 11.7426L28.1689 12.0335V11.888L28.678 11.5972V11.7426Z" fill="white"/>
<path d="M31.223 10.2884L31.3927 10.4338L30.2049 11.0155L30.0352 10.8701L31.223 10.2884Z" fill="white"/>
<path d="M30.7144 12.3243V12.4697L30.375 12.6151V12.4697L30.7144 12.3243Z" fill="white"/>
<path d="M31.5633 11.888L30.7148 12.3243L31.5633 11.888Z" fill="white"/>
<path d="M30.3753 12.6151L29.1875 13.1968V13.0514L30.2056 12.4697L30.3753 12.6151Z" fill="white"/>
<path d="M29.0174 13.3422L28.1689 13.6331L29.0174 13.1968V13.3422Z" fill="white"/>
<path d="M27.9995 13.7785L27.6602 13.9239V13.7785L27.9995 13.6331V13.7785Z" fill="white"/>
<path d="M30.5446 12.906L28.8477 13.7785V13.6331L30.5446 12.7605V12.906Z" fill="white"/>
<path d="M27.9995 14.2147L27.6602 14.3601V14.2147L27.9995 14.0693V14.2147Z" fill="white"/>
<path d="M28.678 13.7785L28.1689 14.2147V14.0693L28.678 13.7785Z" fill="white"/>
<path d="M31.733 12.1789V12.3243L30.7148 12.906V12.7605L31.733 12.1789Z" fill="white"/>
<path d="M31.7328 12.1789L30.0359 13.0514L29.8662 12.906L31.5631 12.0334L31.7328 12.1789Z" fill="white"/>
<path d="M29.6966 13.0514L28.5088 13.7785V13.6331L29.6966 13.0514Z" fill="white"/>
<path d="M30.3753 13.1968L29.3572 13.7785L29.1875 13.6331L30.3753 13.0514V13.1968Z" fill="white"/>
<path d="M29.0181 13.9239L28.6787 14.0693L29.0181 13.7785V13.9239Z" fill="white"/>
<path d="M31.7327 12.4697V12.6151L30.5449 13.1968V13.0514L31.7327 12.4697Z" fill="white"/>
<path d="M31.0532 14.2147V14.3602L30.8835 14.5056L30.7139 14.3602L31.0532 14.2147Z" fill="white"/>
<path d="M31.9024 13.7785L32.0721 13.9239L31.2236 14.3602V14.2147L31.9024 13.7785Z" fill="white"/>
<path d="M30.7142 14.651L29.5264 15.0872L30.7142 14.5056V14.651Z" fill="white"/>
<path d="M29.3563 15.2327L28.5078 15.6689V15.5235L29.3563 15.0872V15.2327Z" fill="white"/>
<path d="M28.3384 15.6689L27.999 15.9598V15.8143L28.3384 15.6689Z" fill="white"/>
<path d="M30.8836 14.9418L29.3564 15.6689L30.8836 14.7964V14.9418Z" fill="white"/>
<path d="M28.3384 16.2506L28.1687 16.396L27.999 16.2506L28.3384 16.1052V16.2506Z" fill="white"/>
<path d="M29.1866 15.8143L28.5078 16.1052V15.9598L29.1866 15.6689V15.8143Z" fill="white"/>
<path d="M32.0718 14.2147V14.3602L31.0537 14.7964L32.0718 14.2147Z" fill="white"/>
<path d="M32.0709 14.0693L30.374 14.9418L32.0709 14.0693Z" fill="white"/>
<path d="M30.2052 15.0873L28.8477 15.6689V15.5235L30.2052 14.9418V15.0873Z" fill="white"/>
<path d="M30.8831 15.2327L29.6953 15.8143V15.6689L30.7134 15.0872L30.8831 15.2327Z" fill="white"/>
<path d="M29.5257 15.8143L29.0166 16.1052V15.9598L29.5257 15.8143Z" fill="white"/>
<path d="M32.0716 14.3602V14.5056L30.8838 15.0873L32.0716 14.3602Z" fill="white"/>
<path d="M31.3934 16.2506V16.396L31.2236 16.5415V16.396L31.3934 16.2506Z" fill="white"/>
<path d="M32.4119 15.8143V15.9598L31.5635 16.396V16.2506L32.4119 15.8143Z" fill="white"/>
<path d="M31.054 16.5414L30.0359 17.1231L29.8662 16.9777L31.054 16.396V16.5414Z" fill="white"/>
<path d="M29.6961 17.2686L29.0174 17.7048L28.8477 17.5594L29.6961 17.1231V17.2686Z" fill="white"/>
<path d="M28.8479 17.7048L28.3389 17.8502L28.8479 17.5594V17.7048Z" fill="white"/>
<path d="M31.3932 16.8323L29.6963 17.7048V17.5594L31.3932 16.8323Z" fill="white"/>
<path d="M28.8481 18.1411L28.5088 18.2865V18.1411L28.6785 17.9956L28.8481 18.1411Z" fill="white"/>
<path d="M29.5264 17.8502L28.8477 18.1411V17.9956L29.5264 17.7048V17.8502Z" fill="white"/>
<path d="M32.4117 16.2506L31.3936 16.8323V16.6869L32.4117 16.2506Z" fill="white"/>
<path d="M32.4117 16.1052L30.7148 16.9777V16.8323L32.4117 15.9598V16.1052Z" fill="white"/>
<path d="M30.5452 17.1231L29.3574 17.7048V17.5594L30.5452 16.9777V17.1231Z" fill="white"/>
<path d="M31.2239 17.1231L30.0361 17.7048V17.5594L31.2239 17.1231Z" fill="white"/>
<path d="M29.8665 17.8502L29.3574 18.1411V17.9956L29.8665 17.7048V17.8502Z" fill="white"/>
<path d="M32.4115 16.396L32.5811 16.5414L31.3933 17.1231L31.2236 16.9777L32.4115 16.396Z" fill="white"/>
<path d="M31.9019 18.2865V18.4319H31.5625L31.9019 18.2865Z" fill="white"/>
<path d="M32.7508 17.7048V17.8502L31.9023 18.2865V18.1411L32.7508 17.7048Z" fill="white"/>
<path d="M31.3922 18.5773L30.374 19.159V19.0136L31.3922 18.4319V18.5773Z" fill="white"/>
<path d="M30.2049 19.159L29.3564 19.5952V19.4498L30.0352 19.159H30.2049Z" fill="white"/>
<path d="M29.1868 19.7407L28.8474 19.8861L28.6777 19.7407L29.1868 19.5952V19.7407Z" fill="white"/>
<path d="M31.732 18.8681L30.0352 19.7407V19.5952L31.732 18.7227V18.8681Z" fill="white"/>
<path d="M29.1871 20.1769L28.8477 20.3224V20.1769L29.1871 20.0315V20.1769Z" fill="white"/>
<path d="M29.8653 19.7407L29.3562 20.0315H29.1865L29.8653 19.7407Z" fill="white"/>
<path d="M32.9205 18.1411V18.2865L31.9023 18.8682V18.7227L32.9205 18.1411Z" fill="white"/>
<path d="M32.7496 18.1411L31.2224 19.0136L31.0527 18.8682L32.7496 17.9957V18.1411Z" fill="white"/>
<path d="M30.8831 19.0136L29.6953 19.5953L30.8831 18.8682V19.0136Z" fill="white"/>
<path d="M31.5619 19.159L30.5437 19.7407L30.374 19.5952L31.5619 19.0136V19.159Z" fill="white"/>
<path d="M30.2044 19.8861L29.865 20.0315L29.6953 19.8861L30.2044 19.7407V19.8861Z" fill="white"/>
<path d="M32.9203 18.4319L31.7324 19.159V19.0136L32.9203 18.4319Z" fill="white"/>
<path d="M32.2417 19.8861V20.0315H31.9023L32.2417 19.8861Z" fill="white"/>
<path d="M33.0906 19.3044V19.4498L32.2422 19.8861V19.7407L33.0906 19.3044Z" fill="white"/>
<path d="M31.733 20.1769L30.7148 20.7586V20.6132L31.733 20.0315V20.1769Z" fill="white"/>
<path d="M30.375 20.7586L29.6963 21.1949V21.0494L30.375 20.7586Z" fill="white"/>
<path d="M29.5267 21.3403L29.0176 21.4857V21.3403L29.5267 21.1949V21.3403Z" fill="white"/>
<path d="M32.0719 20.4678L30.375 21.3403V21.1949L32.0719 20.3224V20.4678Z" fill="white"/>
<path d="M29.5269 21.7765L29.1875 21.922V21.7765L29.5269 21.6311V21.7765Z" fill="white"/>
<path d="M30.2051 21.3403L29.6961 21.6311H29.5264L30.2051 21.3403Z" fill="white"/>
<path d="M33.0906 19.7407L33.2603 19.8861L32.2422 20.4678V20.3224L33.0906 19.7407Z" fill="white"/>
<path d="M33.0904 19.7407L31.3936 20.6132V20.4678L33.0904 19.5953V19.7407Z" fill="white"/>
<path d="M31.2239 20.6132L30.0361 21.1949L31.2239 20.4678V20.6132Z" fill="white"/>
<path d="M31.9027 20.7586L30.7148 21.3403V21.1949L31.9027 20.6132V20.7586Z" fill="white"/>
<path d="M30.5452 21.4857L30.0361 21.6311V21.4857L30.5452 21.3403V21.4857Z" fill="white"/>
<path d="M33.2601 20.0315L32.0723 20.7586V20.6132L33.2601 20.0315Z" fill="white"/>
<path d="M32.5796 21.7766V21.922L32.2402 22.0674V21.922L32.5796 21.7766Z" fill="white"/>
<path d="M33.4285 21.3403V21.4857L32.5801 21.922V21.7765L33.4285 21.3403Z" fill="white"/>
<path d="M32.2406 22.0674L31.0527 22.6491L32.2406 22.0674Z" fill="white"/>
<path d="M30.8826 22.7945L30.0342 23.2307V23.0853L30.8826 22.6491V22.7945Z" fill="white"/>
<path d="M29.8648 23.2307L29.5254 23.5216V23.3762L29.8648 23.2307Z" fill="white"/>
<path d="M32.4098 22.5036L30.8826 23.2307H30.7129L32.4098 22.3582V22.5036Z" fill="white"/>
<path d="M29.8648 23.8124L29.5254 23.9578V23.8124L29.8648 23.667V23.8124Z" fill="white"/>
<path d="M30.7129 23.3762L30.0342 23.667V23.5216L30.5432 23.2307L30.7129 23.3762Z" fill="white"/>
<path d="M33.5982 21.7766V21.922L32.5801 22.3582V22.2128L33.5982 21.7766Z" fill="white"/>
<path d="M33.5983 21.6311L31.9014 22.5036V22.3582L33.5983 21.6311Z" fill="white"/>
<path d="M31.7315 22.6491L30.374 23.2307V23.0853L31.5619 22.5036L31.7315 22.6491Z" fill="white"/>
<path d="M32.2408 22.7945L31.2227 23.3762V23.2307L32.2408 22.6491V22.7945Z" fill="white"/>
<path d="M31.053 23.3762L30.5439 23.667V23.5216L30.8833 23.2307L31.053 23.3762Z" fill="white"/>
<path d="M33.598 21.922V22.0674L32.4102 22.6491V22.5036L33.598 21.922Z" fill="white"/>
<path d="M24.266 16.396L24.4356 15.6689H24.266L24.0963 16.1052L23.0781 15.6689V15.8144L24.266 16.396Z" fill="white"/>
<path d="M18.3263 21.3403L18.4959 20.7586L18.3263 20.6132L18.1566 21.0494L17.1384 20.7586L16.9688 20.904L18.3263 21.3403Z" fill="white"/>
<path d="M11.1996 20.6132L11.3692 20.0315H11.1996L11.0299 20.4678L10.0117 20.0315V20.1769L11.1996 20.6132Z" fill="white"/>
<path d="M14.5931 27.4479L14.7628 26.8662L14.5931 26.7208L14.4234 27.1571L13.4053 26.8662V27.0116L14.5931 27.4479Z" fill="white"/>
<path d="M24.2657 26.8662L24.4354 26.1391H24.096V26.5754L23.0779 26.1391L22.9082 26.2845L24.2657 26.8662Z" fill="white"/>
<path d="M19.6845 24.9758L18.1572 25.5574V25.2666L19.5148 24.6849L19.6845 24.9758Z" fill="white"/>
<path d="M19.8539 24.2487L18.157 25.1212L17.9873 24.8303L19.6842 23.9578L19.8539 24.2487Z" fill="white"/>
<path d="M24.7745 18.2865L23.417 19.0136V18.7227L24.7745 17.9957V18.2865Z" fill="white"/>
<path d="M25.1146 17.5594L23.4177 18.4319L23.248 18.141L24.9449 17.2685L25.1146 17.5594Z" fill="white"/>
<path d="M27.1512 22.6491V22.9399L22.909 25.1212L22.7393 24.8303L27.1512 22.6491Z" fill="white"/>
<path d="M27.1509 23.0853V23.3762L23.9268 24.9758V24.6849L27.1509 23.0853Z" fill="white"/>
<path d="M27.8296 22.3582L27.9993 22.9399L27.6599 23.0853L27.4902 22.5036L27.8296 22.3582Z" fill="white"/>
<path d="M18.835 16.1052V16.2506L14.5928 18.4319V18.2865L18.835 16.1052Z" fill="white"/>
<path d="M18.8355 16.5415V16.6869L15.6113 18.4319V18.1411L18.8355 16.5415Z" fill="white"/>
<path d="M19.5142 15.6689L19.6839 16.396L19.3445 16.5415L19.1748 15.9598L19.5142 15.6689Z" fill="white"/>
<path d="M24.9446 21.0494V21.6311L24.4355 21.922L24.9446 22.0674V22.6491L25.1143 22.2128H25.6234L25.4537 21.7765L25.6234 21.3403L25.284 21.4857L24.9446 21.0494Z" fill="white"/>
<path d="M13.9143 30.7925L13.7447 31.3742L13.4053 31.6651L13.7447 31.8105V32.3922L14.084 31.9559H14.4234L14.2537 31.5196L14.5931 31.0834L14.084 31.2288L13.9143 30.7925Z" fill="white"/>
<path d="M11.7092 21.3403V21.922L11.2002 22.2128L11.5396 22.3582L11.7092 22.9399L11.8789 22.5036H12.388L12.2183 22.0674L12.388 21.6311L12.0486 21.7765L11.7092 21.3403Z" fill="white"/>
<path d="M24.2657 34.4281L20.0234 36.6093V36.0277L24.096 33.8464L24.2657 34.4281Z" fill="white"/>
<path d="M24.4352 35.7368L22.2293 36.9002L22.0596 36.3185L24.2655 35.1551L24.4352 35.7368Z" fill="white"/>
<path d="M19.0054 38.4998L15.9509 40.0994L15.7812 39.5177L18.8357 37.9181L19.0054 38.4998Z" fill="white"/>
<path d="M21.8901 37.0456L19.5144 38.2089L19.3447 37.7727L21.7204 36.4639L21.8901 37.0456Z" fill="white"/>
<path d="M24.6046 37.0456L16.1201 41.4082V40.8265L24.6046 36.4639V37.0456Z" fill="white"/>
<path d="M24.7744 38.3544L22.0593 39.6631L21.8896 39.2269L24.7744 37.7727V38.3544Z" fill="white"/>
<path d="M25.1141 39.5177L16.6297 44.0257L16.46 43.444L24.9444 38.936L25.1141 39.5177Z" fill="white"/>
<path d="M25.2833 40.8265L23.2471 41.8444V41.2627L25.1136 40.2448L25.2833 40.8265Z" fill="white"/>
<path d="M22.7387 42.1353L20.3631 43.444L20.1934 42.8623L22.569 41.5536L22.7387 42.1353Z" fill="white"/>
<path d="M25.4532 42.1353L21.3806 44.3165L21.2109 43.7349L25.4532 41.5536V42.1353Z" fill="white"/>
<path d="M20.532 44.6074L16.9685 46.4978L16.7988 45.9161L20.532 44.1711V44.6074Z" fill="white"/>
<path d="M33.0889 29.92L29.0164 31.9559L28.8467 31.5196L32.9192 29.3384L33.0889 29.92Z" fill="white"/>
<path d="M28.1682 32.3922L24.0957 34.428V33.9918L28.1682 31.8105V32.3922Z" fill="white"/>
<path d="M27.8291 33.9918L24.2656 35.7368V35.1551L27.8291 33.4101V33.9918Z" fill="white"/>
<path d="M30.7136 32.5376L28.3379 33.7009V33.1193L30.5439 31.9559L30.7136 32.5376Z" fill="white"/>
<path d="M33.4291 32.3922L24.6052 37.0456L24.4355 36.4639L33.4291 31.8105V32.3922Z" fill="white"/>
<path d="M29.8659 35.7368L24.7752 38.3544L24.6055 37.7727L29.8659 35.1551V35.7368Z" fill="white"/>
<path d="M33.9376 35.0097L24.9441 39.6631L24.7744 39.0815L33.7679 34.428L33.9376 35.0097Z" fill="white"/>
<path d="M34.1076 36.3185L32.241 37.3364L32.0713 36.7547L34.1076 35.7368V36.3185Z" fill="white"/>
<path d="M31.562 37.6273L29.1863 38.7906L29.0166 38.3544L31.3923 37.0456L31.562 37.6273Z" fill="white"/>
<path d="M28.8474 39.0815L25.1143 40.9719V40.3902L28.6777 38.4998L28.8474 39.0815Z" fill="white"/>
<path d="M34.2774 37.6273L30.2049 39.8085L30.0352 39.2269L34.2774 37.0456V37.6273Z" fill="white"/>
<path d="M29.3567 40.0994L25.2842 42.2807V41.699L29.3567 39.5177V40.0994Z" fill="white"/>
<defs>
<linearGradient id="paint0_linear_10_14751" x1="31.1671" y1="7.9697" x2="4.24558" y2="7.9697" gradientUnits="userSpaceOnUse">
<stop stop-color="#FF6279"/>
<stop offset="1" stop-color="#FFAD60"/>
</linearGradient>
<linearGradient id="paint1_linear_10_14751" x1="39.8687" y1="26.0008" x2="5.26812" y2="26.0008" gradientUnits="userSpaceOnUse">
<stop stop-color="#1D3285"/>
<stop offset="1" stop-color="#224BE9"/>
</linearGradient>
<linearGradient id="paint2_linear_10_14751" x1="33.2038" y1="8.37864" x2="5.26812" y2="8.37864" gradientUnits="userSpaceOnUse">
<stop stop-color="#FF6279"/>
<stop offset="1" stop-color="#FFAD60"/>
</linearGradient>
</defs>
</svg>
