<svg width="96" height="90" viewBox="0 0 96 90" fill="none" xmlns="http://www.w3.org/2000/svg">
<path d="M12.9834 66.5044L61.3115 90L95.9311 76.0619L37.8445 47.5885L12.9834 66.5044Z" fill="url(#paint0_linear_10_19548)"/>
<path d="M55.2712 47.3894C42.4922 41.6151 21.8133 41.8142 9.26661 47.9867C-3.2801 54.1593 -3.04774 63.916 9.73131 69.6903C22.5104 75.4646 43.1892 75.2655 55.7359 69.0929C68.2826 62.9204 68.0503 53.1637 55.2712 47.3894Z" fill="white"/>
<path d="M55.039 47.3894C42.2599 41.6151 22.0457 42.0133 9.49903 47.9867C-3.04768 53.9602 -2.81532 63.7168 9.96373 69.4912C22.7428 75.2655 42.9569 74.8673 55.5036 68.8938C67.818 62.7213 67.818 53.1637 55.039 47.3894Z" fill="#FCFCFC"/>
<path d="M54.8062 47.5885C42.2595 41.8142 22.0454 42.2124 9.73106 48.1858C-2.5833 54.1593 -2.35096 63.7168 10.1957 69.2921C22.7425 75.0664 42.9566 74.6682 55.271 68.6947C67.5853 62.7213 67.353 53.3628 54.8062 47.5885Z" fill="#F9F9FA"/>
<path d="M54.5747 47.7876C42.2604 42.2124 22.2786 42.4115 9.96421 48.385C-2.1178 54.3584 -2.11781 63.7168 10.4289 69.2921C22.7433 74.8673 42.7251 74.6682 55.0394 68.6947C67.1215 62.7213 66.8891 53.3628 54.5747 47.7876Z" fill="#F6F6F7"/>
<path d="M54.3413 47.7876C42.027 42.2124 22.2775 42.4115 10.1955 48.385C-1.88651 54.3584 -1.65417 63.5177 10.6602 69.0929C22.9746 74.6682 42.724 74.4691 54.806 68.4956C66.6557 62.7213 66.6557 53.3628 54.3413 47.7876Z" fill="#F3F3F4"/>
<path d="M54.1097 47.9867C42.0277 42.4115 22.5106 42.8097 10.6609 48.5841C-1.18874 54.3584 -0.956387 63.5177 11.1256 69.0929C23.2076 74.6681 42.7248 74.2699 54.5744 68.4956C66.4241 62.5221 66.1918 53.3628 54.1097 47.9867Z" fill="#F0F0F2"/>
<path d="M53.8775 47.9867C41.7954 42.6106 22.5107 42.8098 10.8934 48.5841C-0.956314 54.3584 -0.723975 63.3186 11.358 68.8938C23.4401 74.4691 42.7248 74.0708 54.3422 68.2965C65.9595 62.5222 65.7271 53.562 53.8775 47.9867Z" fill="#EDEEEF"/>
<path d="M53.4124 48.1859C41.5627 42.8098 22.5103 43.0089 10.893 48.7832C-0.724361 54.5576 -0.492021 63.5177 11.3576 68.8938C23.2073 74.2699 42.2597 74.0708 53.8771 68.2965C65.4944 62.5222 65.4944 53.562 53.4124 48.1859Z" fill="#EAEBEC"/>
<path d="M53.1801 48.385C41.5628 43.0089 22.5104 43.4071 11.1254 48.9823C-0.491938 54.5575 -0.259599 63.5177 11.5901 68.6947C23.2074 74.0708 42.2598 73.6726 53.6448 68.0974C65.2621 62.5221 65.0297 53.562 53.1801 48.385Z" fill="#E7E8EA"/>
<path d="M52.9474 48.385C41.3301 43.208 22.7424 43.4071 11.3574 48.9823C-0.0275633 54.5575 0.204776 63.3186 11.8221 68.4956C23.4394 73.6726 42.0271 73.4735 53.4121 67.8982C64.7971 62.5221 64.5648 53.7611 52.9474 48.385Z" fill="#E4E5E7"/>
<path d="M52.7152 48.5841C41.3302 43.4071 22.9748 43.6062 11.5898 49.1814C0.204849 54.7567 0.437206 63.3186 12.0545 68.4956C23.4395 73.6726 41.7949 73.4735 53.1799 67.8982C64.3325 62.323 64.3325 53.7611 52.7152 48.5841Z" fill="#E1E2E4"/>
<path d="M52.4835 48.5841C41.0985 43.4071 22.9755 43.8053 11.8228 49.1814C0.670203 54.5575 0.902561 63.1195 12.2875 68.2965C23.6725 73.4735 41.7956 73.0752 52.9482 67.6991C64.1008 62.323 63.8685 53.7611 52.4835 48.5841Z" fill="#DFDFE2"/>
<path d="M52.2508 48.7832C41.0982 43.8053 23.2075 44.0044 12.0549 49.3806C1.13459 54.7567 1.36693 63.1195 12.5196 68.2965C23.6722 73.2744 41.5629 73.0752 52.7155 67.6991C63.6358 62.323 63.4034 53.7611 52.2508 48.7832Z" fill="#DCDCDF"/>
<path d="M52.0186 48.9823C40.866 44.0044 23.2077 44.2035 12.5197 49.5797C1.59944 54.9558 1.83177 63.1195 12.9844 68.0973C24.137 73.0752 41.7954 72.8761 52.4833 67.5C63.1712 62.323 63.1713 53.9602 52.0186 48.9823Z" fill="#D9D9DC"/>
<path d="M51.786 48.9823C40.8657 44.0044 23.4397 44.2035 12.7517 49.5796C2.06381 54.9558 2.29616 63.1195 13.2165 67.8982C24.1367 72.8761 41.5627 72.677 52.2507 67.3009C62.9386 62.1239 62.7063 53.9602 51.786 48.9823Z" fill="#D6D6DA"/>
<path d="M51.5533 49.1814C40.8653 44.4027 23.4394 44.6018 12.9838 49.7788C2.52818 54.9558 2.52819 63.1195 13.4485 67.8982C24.1364 72.677 41.5624 72.4779 52.018 67.3009C62.4735 62.1239 62.2412 53.9602 51.5533 49.1814Z" fill="#D3D3D7"/>
<path d="M51.321 49.1814C40.6331 44.4027 23.6718 44.6018 13.2162 49.7788C2.76062 54.9558 2.99296 62.9204 13.6809 67.6991C24.3688 72.4779 41.3301 72.2788 51.7857 67.1018C62.0089 62.1239 62.0089 54.1593 51.321 49.1814Z" fill="#D0D1D4"/>
<path d="M51.0893 49.3805C40.6337 44.6018 23.6724 44.8009 13.4492 49.9779C3.22594 54.9558 3.22593 62.9204 13.9139 67.6991C24.3695 72.4779 41.3308 72.2788 51.554 67.1018C61.7773 61.9248 61.5449 54.1593 51.0893 49.3805Z" fill="#CDCED2"/>
<path d="M50.8571 49.5797C40.4015 45 23.9049 45.1991 13.6817 50.177C3.4584 55.1549 3.69074 62.9204 14.1463 67.6991C24.6019 72.4779 41.0985 72.0797 51.3218 67.1018C61.3127 61.9248 61.0804 54.1593 50.8571 49.5797Z" fill="#CACBCF"/>
<path d="M50.6244 49.5797C40.4012 45 24.1369 45.1991 13.9137 50.177C3.92278 55.1549 4.15514 62.7212 14.3784 67.3009C24.6016 71.8805 40.8659 71.6814 51.0891 66.7035C60.8477 61.9248 60.8477 54.1593 50.6244 49.5797Z" fill="#C7C8CC"/>
<path d="M50.3917 49.7788C40.4008 45.1991 24.1366 45.3982 14.3781 50.3761C4.6195 55.1549 4.6195 62.7213 14.8427 67.3009C24.8336 71.8806 41.0979 71.6814 50.8564 66.7036C60.615 61.9248 60.3826 54.3584 50.3917 49.7788Z" fill="#C4C5CA"/>
<path d="M50.1596 49.7788C40.1687 45.1991 24.3691 45.5973 14.6106 50.177C4.85203 54.7566 5.08436 62.5221 15.0753 66.9027C25.0662 71.4823 40.8657 71.0841 50.6243 66.5044C60.1505 61.9248 59.9181 54.3584 50.1596 49.7788Z" fill="#C1C2C7"/>
<path d="M14.3775 44.4027C24.3684 39.4248 40.4003 39.4248 50.3912 44.4027C55.2705 46.792 57.8263 49.9779 57.8263 53.1637C57.8263 54.9557 57.8263 56.7478 57.8263 58.5398C57.8263 61.7257 55.2705 64.9115 50.3912 67.3009C40.4003 72.2788 24.3684 72.2788 14.3775 67.3009C9.49821 64.9115 6.94238 61.7257 6.94238 58.5398C6.94238 56.7478 6.94238 54.9557 6.94238 53.1637C6.94238 49.9779 9.49821 46.792 14.3775 44.4027Z" fill="url(#paint1_linear_10_19548)"/>
<path d="M14.3779 44.4027C4.38704 49.3805 4.38704 57.3451 14.3779 62.323C24.3688 67.3009 40.4007 67.3009 50.3916 62.323C60.3825 57.3451 60.3825 49.3805 50.3916 44.4027C40.6331 39.4248 24.3688 39.4248 14.3779 44.4027Z" fill="#F8F6FB"/>
<path d="M53.1805 49.7788C52.0187 48.385 50.3923 46.9912 48.0688 45.7965C39.472 41.615 25.5312 41.615 16.9344 45.7965C14.611 46.9912 12.7522 48.385 11.8228 49.7788H10.4287V53.7611C10.6611 56.5487 12.7522 59.1372 16.9344 61.3275C25.5312 65.5089 39.472 65.5089 48.0688 61.3275C52.2511 59.3363 54.3422 56.5487 54.5745 53.7611V49.7788H53.1805Z" fill="url(#paint2_linear_10_19548)"/>
<path d="M16.9339 42.0133C8.33712 46.1947 8.33712 53.1637 16.9339 57.3452C25.5308 61.5266 39.4716 61.5266 48.0684 57.3452C56.6652 53.1637 56.6652 46.1947 48.0684 42.0133C39.4716 37.8319 25.5308 37.8319 16.9339 42.0133Z" fill="#F8F6FB"/>
<path d="M19.4899 42.8098C12.2872 46.3938 12.2872 52.1682 19.4899 55.7522C26.6927 59.3363 38.31 59.3363 45.5127 55.7522C52.7155 52.1682 52.7155 46.3938 45.5127 42.8098C38.31 39.2257 26.6927 39.2257 19.4899 42.8098Z" fill="#BAC1E8"/>
<path d="M22.2783 44.0044C22.2783 44.4026 22.743 46.1947 23.6724 47.1902C25.0665 48.9823 27.39 49.7787 29.7134 50.177C34.3604 50.9734 42.4925 49.5796 42.7248 43.6062C37.3809 47.3894 26.4606 46.9911 22.2783 44.0044Z" fill="#2A4BC0"/>
<path d="M39.0078 38.4292C37.1491 37.6327 30.1787 36.438 25.2994 38.6283C23.673 39.2257 21.3495 40.6195 22.2789 44.4027C22.7436 46.1947 25.0671 47.7876 27.3905 48.9823C29.714 49.9779 33.1992 49.7788 34.5933 49.5796C35.9873 49.3805 37.3814 48.9823 38.5431 48.5841C39.9372 47.9867 41.3313 47.1903 42.0283 45.7964C43.1901 43.0088 41.5637 39.6239 39.0078 38.4292Z" fill="#2A4BC0"/>
<path d="M20.8848 42.0132C20.8848 42.4115 21.3495 44.2035 22.5112 45.1991C24.1376 46.9911 26.6934 47.7876 29.2492 48.1858C34.3609 48.9823 43.4224 47.5885 43.6547 41.615C38.0784 45.5973 25.5317 45.1991 20.8848 42.0132Z" fill="#2A4BC0"/>
<path d="M20.8848 41.8141C20.8848 42.2124 21.3495 44.0044 22.5112 45C24.1376 46.792 26.6934 47.5885 29.2492 47.9867C34.3609 48.7832 43.4224 47.3894 43.6547 41.4159C38.0784 45.1991 25.5317 44.8009 20.8848 41.8141Z" fill="url(#paint3_linear_10_19548)"/>
<path d="M39.9369 36.438C37.8458 35.6416 29.946 34.4469 24.602 36.6372C22.9756 37.2345 20.1875 38.6283 21.1168 42.4115C21.5815 44.2035 24.1373 45.7964 26.6932 46.9911C29.249 47.9867 33.1989 47.7876 34.5929 47.5885C36.2194 47.3894 37.8458 46.9911 39.0075 46.5929C40.634 45.9956 42.028 45.1991 42.9574 43.8053C44.5838 40.8186 42.7251 37.4336 39.9369 36.438Z" fill="url(#paint4_linear_10_19548)"/>
<path d="M20.4199 39.823C20.4199 40.2212 20.8846 42.0133 22.0463 43.0088C23.9051 44.8009 26.4609 45.5973 29.0167 45.9956C34.3607 46.792 44.1192 45.3982 44.1192 39.4248C38.3106 43.208 25.2992 42.8097 20.4199 39.823Z" fill="#2A4BC0"/>
<path d="M20.4199 39.4248C20.4199 39.823 20.8846 41.615 22.0463 42.6106C23.9051 44.4027 26.4609 45.1991 29.0167 45.5973C34.3607 46.3938 44.1192 45 44.1192 39.0266C38.3106 42.8097 25.2992 42.6106 20.4199 39.4248Z" fill="url(#paint5_linear_10_19548)"/>
<path d="M40.4018 34.0487C38.0783 33.2522 29.9462 32.0575 24.1375 34.2478C22.2787 34.8451 19.4906 36.2389 20.42 40.0221C20.8846 41.8142 23.6728 43.4071 26.461 44.6018C29.0168 45.5974 33.199 45.3982 34.8254 45.1991C36.4519 45 38.0783 44.6018 39.4724 44.2035C41.0988 43.6062 42.7252 42.8097 43.6546 41.4159C45.2811 38.6283 43.4223 35.0442 40.4018 34.0487Z" fill="#2A4BC0"/>
<path d="M42.9566 35.8407C41.0978 33.8496 36.9156 32.6549 32.2687 32.6549C27.6218 32.6549 23.6719 33.8496 21.8131 35.8407C21.3484 36.2389 21.1161 36.6372 20.8837 37.2345C20.6514 37.6327 20.6514 38.031 20.6514 38.6283C20.6514 38.8274 20.6514 39.0266 20.6514 39.0266C20.6514 39.4248 20.8837 40.0221 21.1161 40.4204C22.7425 42.8097 27.1571 44.4027 32.501 44.4027C37.6126 44.4027 42.0272 42.8097 43.6537 40.6195C43.886 40.2212 44.1183 39.823 44.3507 39.4248C44.3507 39.2257 44.3507 39.0266 44.3507 38.8274C44.3507 38.4292 44.3507 38.031 44.1183 37.6328C43.6537 36.6372 43.4213 36.2389 42.9566 35.8407Z" fill="#2A4BC0"/>
<path d="M42.9566 35.2434C41.0978 33.2522 36.9156 32.0575 32.2687 32.0575C27.6218 32.0575 23.6719 33.2522 21.8131 35.2434C21.3484 35.6416 21.1161 36.0398 20.8837 36.6372C20.6514 37.0354 20.6514 37.4336 20.6514 38.031C20.6514 38.2301 20.6514 38.4292 20.6514 38.4292C20.6514 38.8274 20.8837 39.4248 21.1161 39.823C22.7425 42.2124 27.1571 43.8053 32.501 43.8053C37.6126 43.8053 42.0272 42.2124 43.6537 40.0221C43.886 39.6239 44.1183 39.2257 44.3507 38.8274C44.3507 38.6283 44.3507 38.4292 44.3507 38.2301C44.3507 37.8319 44.3507 37.4336 44.1183 37.0354C43.6537 36.2389 43.4213 35.6416 42.9566 35.2434Z" fill="url(#paint6_linear_10_19548)"/>
<path d="M32.2688 32.854C25.7631 32.854 21.1162 35.4425 21.1162 37.8318C21.1162 40.2212 25.7631 42.8097 32.2688 42.8097C38.7745 42.8097 43.4215 40.2212 43.4215 37.8318C43.4215 35.4425 38.7745 32.854 32.2688 32.854Z" fill="#5752D0"/>
<path opacity="0.7" d="M32.9661 7.16812C32.7338 7.16812 32.5014 7.16812 32.2691 7.16812C23.2075 7.16812 15.7725 13.5398 15.7725 21.3053C15.7725 24.0929 16.7018 26.4823 18.3283 28.6726C20.187 31.2611 21.1164 34.2478 21.1164 37.2345C21.1164 38.6283 22.2782 40.0221 24.3693 41.0177C28.7839 43.208 35.9866 43.208 40.1688 41.0177C42.26 40.0221 43.1893 39.0265 43.4217 37.2345C43.654 34.0487 44.3511 31.0619 46.2098 28.4735C47.8363 26.0841 48.7656 23.4956 48.5333 20.5088C48.301 13.3407 41.0982 7.16812 32.9661 7.16812Z" fill="url(#paint7_linear_10_19548)"/>
<g opacity="0.55">
<path opacity="0.55" d="M37.8443 8.96017C37.612 9.75663 37.1473 10.7522 36.6826 11.5487C38.309 12.146 39.9355 13.1416 41.0972 14.3363C41.7942 13.7389 42.7236 13.1416 43.4206 12.5442C41.7942 10.9513 39.9355 9.75663 37.8443 8.96017Z" fill="url(#paint8_linear_10_19548)"/>
<path opacity="0.55" d="M36.4508 11.9469C35.9861 12.7434 35.7538 13.7389 35.2891 14.5354C36.4508 14.9336 37.3802 15.531 38.0772 16.3274C38.7742 15.7301 39.7036 15.1328 40.4007 14.5354C39.4713 13.5398 38.0772 12.5442 36.4508 11.9469Z" fill="url(#paint9_linear_10_19548)"/>
<path opacity="0.55" d="M41.7949 15.1327C42.9567 16.3274 43.6537 17.9203 43.886 19.5133C45.0478 19.5133 45.9772 19.3141 47.1389 19.3141C46.6742 17.323 45.7448 15.3318 44.3507 13.7389C43.4213 13.938 42.7243 14.5354 41.7949 15.1327Z" fill="url(#paint10_linear_10_19548)"/>
<path opacity="0.55" d="M38.7744 16.9247C39.4715 17.7212 39.9361 18.7168 40.1685 19.7124C41.3302 19.7124 42.2596 19.5133 43.4213 19.5133C43.189 18.1194 42.2596 16.7256 41.3302 15.5309C40.4008 15.9292 39.7038 16.3274 38.7744 16.9247Z" fill="url(#paint11_linear_10_19548)"/>
</g>
<path opacity="0.5" d="M32.5017 18.1194C37.8912 18.1194 42.2603 16.0691 42.2603 13.5398C42.2603 11.0106 37.8912 8.96017 32.5017 8.96017C27.1122 8.96017 22.7432 11.0106 22.7432 13.5398C22.7432 16.0691 27.1122 18.1194 32.5017 18.1194Z" fill="url(#paint12_radial_10_19548)"/>
<path opacity="0.5" d="M32.5015 15.7301C36.6078 15.7301 39.9366 14.482 39.9366 12.9425C39.9366 11.4029 36.6078 10.1548 32.5015 10.1548C28.3952 10.1548 25.0664 11.4029 25.0664 12.9425C25.0664 14.482 28.3952 15.7301 32.5015 15.7301Z" fill="url(#paint13_radial_10_19548)"/>
<path d="M32.5006 18.5177C28.5507 18.5177 25.2979 21.3053 25.2979 24.6903V37.0354C25.2979 38.031 26.2272 38.8274 27.389 38.8274C28.5507 38.8274 29.4801 38.031 29.4801 37.0354V24.6903C29.4801 23.2965 30.8742 22.1018 32.5006 22.1018C34.127 22.1018 35.5211 23.2965 35.5211 24.6903V37.0354C35.5211 38.031 36.4505 38.8274 37.6122 38.8274C38.774 38.8274 39.7033 38.031 39.7033 37.0354V24.6903C39.7033 21.3053 36.4505 18.5177 32.5006 18.5177Z" fill="url(#paint14_linear_10_19548)"/>
<path d="M27.6217 36.8363C28.2633 36.8363 28.7834 36.3905 28.7834 35.8407C28.7834 35.2909 28.2633 34.8451 27.6217 34.8451C26.9801 34.8451 26.46 35.2909 26.46 35.8407C26.46 36.3905 26.9801 36.8363 27.6217 36.8363Z" fill="url(#paint15_radial_10_19548)"/>
<path d="M27.6217 33.4513C28.2633 33.4513 28.7834 33.0056 28.7834 32.4558C28.7834 31.9059 28.2633 31.4602 27.6217 31.4602C26.9801 31.4602 26.46 31.9059 26.46 32.4558C26.46 33.0056 26.9801 33.4513 27.6217 33.4513Z" fill="url(#paint16_radial_10_19548)"/>
<path d="M27.6217 30.2655C28.2633 30.2655 28.7834 29.8197 28.7834 29.2699C28.7834 28.7201 28.2633 28.2743 27.6217 28.2743C26.9801 28.2743 26.46 28.7201 26.46 29.2699C26.46 29.8197 26.9801 30.2655 27.6217 30.2655Z" fill="url(#paint17_radial_10_19548)"/>
<path d="M27.6217 27.0796C28.2633 27.0796 28.7834 26.6339 28.7834 26.0841C28.7834 25.5342 28.2633 25.0885 27.6217 25.0885C26.9801 25.0885 26.46 25.5342 26.46 26.0841C26.46 26.6339 26.9801 27.0796 27.6217 27.0796Z" fill="url(#paint18_radial_10_19548)"/>
<path d="M28.0865 23.6947C28.7281 23.6947 29.2483 23.2489 29.2483 22.6991C29.2483 22.1493 28.7281 21.7035 28.0865 21.7035C27.4449 21.7035 26.9248 22.1493 26.9248 22.6991C26.9248 23.2489 27.4449 23.6947 28.0865 23.6947Z" fill="url(#paint19_radial_10_19548)"/>
<path d="M30.8746 21.7035C31.5162 21.7035 32.0363 21.2578 32.0363 20.7079C32.0363 20.1581 31.5162 19.7124 30.8746 19.7124C30.233 19.7124 29.7129 20.1581 29.7129 20.7079C29.7129 21.2578 30.233 21.7035 30.8746 21.7035Z" fill="url(#paint20_radial_10_19548)"/>
<path d="M37.6129 36.8363C38.2545 36.8363 38.7746 36.3905 38.7746 35.8407C38.7746 35.2909 38.2545 34.8451 37.6129 34.8451C36.9713 34.8451 36.4512 35.2909 36.4512 35.8407C36.4512 36.3905 36.9713 36.8363 37.6129 36.8363Z" fill="url(#paint21_radial_10_19548)"/>
<path d="M37.6129 33.4513C38.2545 33.4513 38.7746 33.0056 38.7746 32.4558C38.7746 31.9059 38.2545 31.4602 37.6129 31.4602C36.9713 31.4602 36.4512 31.9059 36.4512 32.4558C36.4512 33.0056 36.9713 33.4513 37.6129 33.4513Z" fill="url(#paint22_radial_10_19548)"/>
<path d="M37.6129 30.2655C38.2545 30.2655 38.7746 29.8197 38.7746 29.2699C38.7746 28.7201 38.2545 28.2743 37.6129 28.2743C36.9713 28.2743 36.4512 28.7201 36.4512 29.2699C36.4512 29.8197 36.9713 30.2655 37.6129 30.2655Z" fill="url(#paint23_radial_10_19548)"/>
<path d="M37.6129 27.0796C38.2545 27.0796 38.7746 26.6339 38.7746 26.0841C38.7746 25.5342 38.2545 25.0885 37.6129 25.0885C36.9713 25.0885 36.4512 25.5342 36.4512 26.0841C36.4512 26.6339 36.9713 27.0796 37.6129 27.0796Z" fill="url(#paint24_radial_10_19548)"/>
<path d="M37.1481 23.6947C37.7897 23.6947 38.3098 23.2489 38.3098 22.6991C38.3098 22.1493 37.7897 21.7035 37.1481 21.7035C36.5065 21.7035 35.9863 22.1493 35.9863 22.6991C35.9863 23.2489 36.5065 23.6947 37.1481 23.6947Z" fill="url(#paint25_radial_10_19548)"/>
<path d="M34.36 21.7035C35.0016 21.7035 35.5217 21.2578 35.5217 20.7079C35.5217 20.1581 35.0016 19.7124 34.36 19.7124C33.7184 19.7124 33.1982 20.1581 33.1982 20.7079C33.1982 21.2578 33.7184 21.7035 34.36 21.7035Z" fill="url(#paint26_radial_10_19548)"/>
<path d="M50.8564 0H13.9133V48.7832C13.6809 51.3717 15.3074 53.7611 19.2572 55.7522C26.46 59.3363 38.0773 59.3363 45.28 55.7522C49.2299 53.7611 50.8564 51.3717 50.624 48.7832V0H50.8564Z" fill="url(#paint27_linear_10_19548)"/>
<defs>
<linearGradient id="paint0_linear_10_19548" x1="37.7081" y1="60.206" x2="69.3538" y2="88.7605" gradientUnits="userSpaceOnUse">
<stop stop-color="#E2E4E9" stop-opacity="0.8"/>
<stop offset="1" stop-color="#E2E4E9" stop-opacity="0"/>
</linearGradient>
<linearGradient id="paint1_linear_10_19548" x1="6.8757" y1="55.8319" x2="58.0238" y2="55.8319" gradientUnits="userSpaceOnUse">
<stop offset="8e-08" stop-color="#C8D6F9"/>
<stop offset="1" stop-color="#BAC1E8"/>
</linearGradient>
<linearGradient id="paint2_linear_10_19548" x1="10.4234" y1="53.3722" x2="54.4783" y2="53.3722" gradientUnits="userSpaceOnUse">
<stop offset="8e-08" stop-color="#C8D6F9"/>
<stop offset="1" stop-color="#BAC1E8"/>
</linearGradient>
<linearGradient id="paint3_linear_10_19548" x1="20.9791" y1="44.8447" x2="43.6533" y2="44.8447" gradientUnits="userSpaceOnUse">
<stop stop-color="#5752D0"/>
<stop offset="1" stop-color="#7F7CF9"/>
</linearGradient>
<linearGradient id="paint4_linear_10_19548" x1="20.8643" y1="41.3289" x2="43.6507" y2="41.3289" gradientUnits="userSpaceOnUse">
<stop stop-color="#5752D0"/>
<stop offset="1" stop-color="#7F7CF9"/>
</linearGradient>
<linearGradient id="paint5_linear_10_19548" x1="20.4027" y1="42.5346" x2="44.2352" y2="42.5346" gradientUnits="userSpaceOnUse">
<stop stop-color="#5752D0"/>
<stop offset="1" stop-color="#7F7CF9"/>
</linearGradient>
<linearGradient id="paint6_linear_10_19548" x1="20.3972" y1="37.8339" x2="44.1583" y2="37.8339" gradientUnits="userSpaceOnUse">
<stop stop-color="#5752D0"/>
<stop offset="1" stop-color="#7F7CF9"/>
</linearGradient>
<linearGradient id="paint7_linear_10_19548" x1="44.2697" y1="35.1328" x2="24.7794" y2="12.3897" gradientUnits="userSpaceOnUse">
<stop stop-color="#FF6279"/>
<stop offset="1" stop-color="#FFAD60"/>
</linearGradient>
<linearGradient id="paint8_linear_10_19548" x1="36.1559" y1="11.5833" x2="47.6976" y2="11.5833" gradientUnits="userSpaceOnUse">
<stop stop-color="white"/>
<stop offset="0.0390585" stop-color="#F3F3F3"/>
<stop offset="0.3989" stop-color="#8D8D8D"/>
<stop offset="0.6885" stop-color="#414141"/>
<stop offset="0.8938" stop-color="#121212"/>
<stop offset="0.9961"/>
<stop offset="1"/>
</linearGradient>
<linearGradient id="paint9_linear_10_19548" x1="29.8329" y1="14.1587" x2="39.5038" y2="14.1587" gradientUnits="userSpaceOnUse">
<stop stop-color="white"/>
<stop offset="0.0390585" stop-color="#F3F3F3"/>
<stop offset="0.3989" stop-color="#8D8D8D"/>
<stop offset="0.6885" stop-color="#414141"/>
<stop offset="0.8938" stop-color="#121212"/>
<stop offset="0.9961"/>
<stop offset="1"/>
</linearGradient>
<linearGradient id="paint10_linear_10_19548" x1="41.2257" y1="16.424" x2="48.7618" y2="16.424" gradientUnits="userSpaceOnUse">
<stop stop-color="white"/>
<stop offset="0.0390585" stop-color="#F3F3F3"/>
<stop offset="0.3989" stop-color="#8D8D8D"/>
<stop offset="0.6885" stop-color="#414141"/>
<stop offset="0.8938" stop-color="#121212"/>
<stop offset="0.9961"/>
<stop offset="1"/>
</linearGradient>
<linearGradient id="paint11_linear_10_19548" x1="34.286" y1="17.4867" x2="41.7259" y2="17.4867" gradientUnits="userSpaceOnUse">
<stop stop-color="white"/>
<stop offset="0.0390585" stop-color="#F3F3F3"/>
<stop offset="0.3989" stop-color="#8D8D8D"/>
<stop offset="0.6885" stop-color="#414141"/>
<stop offset="0.8938" stop-color="#121212"/>
<stop offset="0.9961"/>
<stop offset="1"/>
</linearGradient>
<radialGradient id="paint12_radial_10_19548" cx="0" cy="0" r="1" gradientUnits="userSpaceOnUse" gradientTransform="translate(32.5779 13.5549) scale(7.81706 6.69901)">
<stop offset="8e-08" stop-color="white"/>
<stop offset="0.9961"/>
<stop offset="1"/>
</radialGradient>
<radialGradient id="paint13_radial_10_19548" cx="0" cy="0" r="1" gradientUnits="userSpaceOnUse" gradientTransform="translate(32.5777 12.8803) scale(5.76591 4.94125)">
<stop offset="8e-08" stop-color="white"/>
<stop offset="0.9961"/>
<stop offset="1"/>
</radialGradient>
<linearGradient id="paint14_linear_10_19548" x1="32.5677" y1="37.6869" x2="32.5677" y2="18.402" gradientUnits="userSpaceOnUse">
<stop offset="8e-08" stop-color="#3C61A1"/>
<stop offset="1" stop-color="white"/>
</linearGradient>
<radialGradient id="paint15_radial_10_19548" cx="0" cy="0" r="1" gradientUnits="userSpaceOnUse" gradientTransform="translate(27.558 35.8194) scale(1.14384 0.980244)">
<stop stop-color="white"/>
<stop offset="0.9961"/>
<stop offset="1"/>
</radialGradient>
<radialGradient id="paint16_radial_10_19548" cx="0" cy="0" r="1" gradientUnits="userSpaceOnUse" gradientTransform="translate(27.558 32.543) scale(1.14384 0.980244)">
<stop stop-color="white"/>
<stop offset="0.9961"/>
<stop offset="1"/>
</radialGradient>
<radialGradient id="paint17_radial_10_19548" cx="0" cy="0" r="1" gradientUnits="userSpaceOnUse" gradientTransform="translate(27.558 29.2655) scale(1.14384 0.980244)">
<stop stop-color="white"/>
<stop offset="0.9961"/>
<stop offset="1"/>
</radialGradient>
<radialGradient id="paint18_radial_10_19548" cx="0" cy="0" r="1" gradientUnits="userSpaceOnUse" gradientTransform="translate(27.558 25.9889) scale(1.14384 0.98024)">
<stop stop-color="white"/>
<stop offset="0.9961"/>
<stop offset="1"/>
</radialGradient>
<radialGradient id="paint19_radial_10_19548" cx="0" cy="0" r="1" gradientUnits="userSpaceOnUse" gradientTransform="translate(28.0882 22.7116) scale(1.14384 0.980244)">
<stop stop-color="white"/>
<stop offset="0.9961"/>
<stop offset="1"/>
</radialGradient>
<radialGradient id="paint20_radial_10_19548" cx="0" cy="0" r="1" gradientUnits="userSpaceOnUse" gradientTransform="translate(30.8721 20.7884) scale(1.14384 0.980244)">
<stop stop-color="white"/>
<stop offset="0.9961"/>
<stop offset="1"/>
</radialGradient>
<radialGradient id="paint21_radial_10_19548" cx="0" cy="0" r="1" gradientUnits="userSpaceOnUse" gradientTransform="translate(37.5932 35.8194) scale(1.14384 0.980244)">
<stop stop-color="white"/>
<stop offset="0.9961"/>
<stop offset="1"/>
</radialGradient>
<radialGradient id="paint22_radial_10_19548" cx="0" cy="0" r="1" gradientUnits="userSpaceOnUse" gradientTransform="translate(37.5932 32.543) scale(1.14384 0.980244)">
<stop stop-color="white"/>
<stop offset="0.9961"/>
<stop offset="1"/>
</radialGradient>
<radialGradient id="paint23_radial_10_19548" cx="0" cy="0" r="1" gradientUnits="userSpaceOnUse" gradientTransform="translate(37.5932 29.2655) scale(1.14384 0.980244)">
<stop stop-color="white"/>
<stop offset="0.9961"/>
<stop offset="1"/>
</radialGradient>
<radialGradient id="paint24_radial_10_19548" cx="0" cy="0" r="1" gradientUnits="userSpaceOnUse" gradientTransform="translate(37.5932 25.9889) scale(1.14384 0.98024)">
<stop stop-color="white"/>
<stop offset="0.9961"/>
<stop offset="1"/>
</radialGradient>
<radialGradient id="paint25_radial_10_19548" cx="0" cy="0" r="1" gradientUnits="userSpaceOnUse" gradientTransform="translate(37.0633 22.7116) scale(1.14431 0.980642)">
<stop stop-color="white"/>
<stop offset="0.9961"/>
<stop offset="1"/>
</radialGradient>
<radialGradient id="paint26_radial_10_19548" cx="0" cy="0" r="1" gradientUnits="userSpaceOnUse" gradientTransform="translate(34.2791 20.7884) scale(1.14385 0.980244)">
<stop stop-color="white"/>
<stop offset="0.9961"/>
<stop offset="1"/>
</radialGradient>
<linearGradient id="paint27_linear_10_19548" x1="32.4501" y1="0.512323" x2="32.4501" y2="99.1402" gradientUnits="userSpaceOnUse">
<stop offset="8e-08" stop-color="#7F7CF9" stop-opacity="0"/>
<stop offset="1" stop-color="#2A4BC0"/>
</linearGradient>
</defs>
</svg>
