<svg width="100" height="100" viewBox="0 0 100 100" fill="none" xmlns="http://www.w3.org/2000/svg">
<path d="M95.4545 57.4649L62.2727 38.9901C60.9091 38.1308 59.5455 37.7012 57.7273 37.7012C56.3636 37.7012 54.5455 38.1308 53.1818 38.9901L4.54545 65.1985C1.81818 66.9171 0 69.9247 0 72.9322C0 76.3694 1.81818 78.9473 4.54545 80.6658L37.7273 98.711C39.0909 99.5703 40.4545 99.9999 42.2727 99.9999C43.6364 99.9999 45.4545 99.5703 46.8182 98.711L95.4545 72.9322C98.1818 71.2136 100 68.6357 100 65.1985C100 61.7614 98.6364 59.1835 95.4545 57.4649Z" fill="white"/>
<path d="M53.6359 38.9903L5.4541 65.1987C2.72683 66.4876 0.454102 69.4951 0.454102 72.9323C0.454102 74.6509 0.908645 76.7991 2.27228 78.088C3.18137 78.9473 4.09047 79.8066 4.99956 80.6659L38.1814 98.711C39.0905 99.1406 39.9995 99.5703 41.3632 99.5703C41.8177 99.5703 42.2723 99.5703 42.7268 99.5703C44.0905 99.5703 45.9086 99.1407 46.8177 98.2814L94.9996 72.5027C97.7268 71.2137 99.9995 68.2062 99.9995 64.7691C99.9995 62.6208 99.0905 60.4726 97.7268 58.754C97.2723 57.8947 96.3632 57.4651 95.4541 57.0354L62.2723 38.5607C60.9086 37.7014 59.545 37.2717 57.7268 37.2717C57.2723 37.2717 56.8177 37.2717 56.3632 37.2717C55.4541 38.5607 54.545 38.5607 53.6359 38.9903Z" fill="#FCFCFD"/>
<path d="M53.6364 39.4197L5.90917 65.1985C3.1819 66.4875 0.90918 69.495 0.90918 72.5026C0.90918 74.2211 1.36372 76.3694 2.72736 77.6583C3.63645 78.5176 4.54554 79.3769 5.45463 79.8065L38.6364 97.8517C39.5455 98.2813 40.4546 98.7109 41.8183 98.7109C42.2728 98.7109 42.7274 98.7109 43.1819 98.7109C44.5455 98.7109 46.3637 98.2813 47.2728 97.422L95.0001 72.0729C97.7274 70.7839 100 67.7764 100 64.7689C100 62.6207 99.5455 60.4724 98.1819 59.1835C97.7273 58.3242 96.8183 57.8946 95.9092 57.4649L63.1819 38.9901C61.8183 38.1308 60.4546 37.7012 58.6364 37.7012C58.1819 37.7012 57.7273 37.7012 57.2728 37.7012C55.4546 38.5605 54.5455 38.9901 53.6364 39.4197Z" fill="#FAFAFA"/>
<path d="M53.6363 39.8495L5.90898 65.6283C3.18171 66.9172 0.908989 69.9247 0.908989 72.9322C0.454444 74.6508 1.36353 76.799 2.27262 78.088C2.72717 78.9472 4.09081 79.8065 4.9999 80.2362L38.1817 98.2814C39.0908 98.711 39.9999 99.1406 41.3635 99.1406C41.8181 99.1406 42.2726 99.1406 42.7272 99.1406C44.0908 99.1406 45.909 98.711 46.8181 97.8517L94.0908 72.9322C96.8181 71.6433 99.0908 68.6358 99.0908 65.6283C99.5453 63.48 98.6363 61.3318 97.2726 60.0428C96.8181 59.6132 95.909 58.7539 94.9999 58.3243L62.2726 40.2792C60.909 39.4199 59.0908 38.9902 57.7272 38.9902C57.2726 38.9902 56.8181 38.9902 56.3635 38.9902C55.909 38.9902 54.5453 38.9902 53.6363 39.8495Z" fill="#F7F7F8"/>
<path d="M54.0909 39.8495L6.81817 65.6282C4.54544 66.9172 1.81817 69.9247 1.81817 72.9322C1.36362 74.6508 2.27272 76.799 3.18181 78.0879C3.63636 78.9472 4.99998 79.8065 5.90908 80.2362L38.6364 97.8517C39.5454 98.2813 40.4545 98.7109 41.3636 98.7109C41.8182 98.7109 42.2727 98.7109 42.7273 98.7109C44.0909 98.7109 45.9091 98.2813 46.8182 97.422L93.6363 72.5026C95.9091 71.2137 98.6364 68.2061 98.6364 65.6282C99.0909 63.48 98.1818 61.3318 96.8182 60.0428C96.3636 59.6132 95.4545 58.7539 94.5454 58.3243L62.2727 40.2792C61.3636 39.8495 59.0909 38.9902 58.1818 38.9902C57.7273 38.9902 57.2727 38.9902 56.8182 38.9902C55.9091 38.9902 55 39.4199 54.0909 39.8495Z" fill="#F4F4F5"/>
<path d="M54.0916 40.2791L7.27344 65.6282C5.00071 66.9172 1.81889 69.9247 1.81889 72.5026C1.36435 74.2212 1.8189 76.3694 3.18253 77.6583C3.63708 78.5176 5.00071 79.3769 5.9098 79.8066L38.6371 97.422C39.5462 97.8517 40.4552 98.2814 41.3643 98.2814C41.8189 98.2814 42.2734 98.2814 42.728 98.2814C44.0916 98.2814 45.9098 97.8517 46.8189 96.9924L93.1825 72.5026C95.4553 71.2137 98.1825 68.2061 98.1825 65.6282C98.6371 63.9097 97.728 61.3318 96.3643 60.0428C95.9098 59.6132 95.0007 58.7539 94.0916 58.3243L62.2734 40.7088C61.3643 40.2791 59.0916 39.4198 58.1825 39.4198C57.728 39.4198 57.2734 39.4198 56.8189 39.4198C55.9098 39.4198 55.0007 39.8495 54.0916 40.2791Z" fill="#F2F2F3"/>
<path d="M54.0916 40.2792L7.27344 65.6283C5.00071 66.9172 1.81889 69.9248 1.81889 72.5026C1.36435 74.2212 1.8189 76.3694 3.18253 77.6584C3.63708 78.5176 5.00071 79.3769 5.9098 79.8066L38.6371 97.422C39.5462 97.8517 40.4552 98.2813 41.3643 98.2813C41.8189 98.2813 42.2734 98.2813 42.728 98.2813C43.6371 98.2813 45.9098 97.422 46.8189 96.9924L92.728 72.5026C95.0007 71.2137 98.1825 68.2062 98.1825 66.0579C98.6371 64.3394 98.1825 62.1911 96.3643 60.4725C95.9098 60.0429 94.5462 59.1836 94.0916 58.7539L62.2734 41.1385C61.3643 40.7089 59.0916 39.8495 58.1825 39.8495C57.728 39.8495 57.2734 39.8495 56.8189 39.8495C55.9098 39.8495 55.0007 39.8496 54.0916 40.2792Z" fill="#EFEFF0"/>
<path d="M54.5453 40.7088L8.18164 65.6283C6.36345 66.9172 2.7271 69.9248 2.7271 72.073C2.27255 73.7916 2.72709 75.9398 4.09073 77.2287C4.54527 78.088 6.36346 78.9473 6.818 79.377L39.0907 96.9925C39.9998 97.4221 40.9089 97.8517 41.818 97.8517C42.2725 97.8517 42.7271 97.8517 43.1816 97.8517C44.0907 97.8517 46.3635 96.9924 47.2726 96.5628L92.7271 72.5027C94.5453 71.2137 98.1816 68.2062 98.1816 66.058C98.6362 64.3394 98.1816 62.1911 96.818 60.4726C96.3634 60.0429 94.9998 59.1836 94.5453 58.7539L63.1816 41.1385C62.2725 40.7089 59.9998 39.8495 59.0907 39.8495C58.6362 39.8495 58.1816 39.8495 57.7271 39.8495C56.3635 39.8495 55.4544 40.2792 54.5453 40.7088Z" fill="#ECECEE"/>
<path d="M54.5458 40.7088L8.63671 65.6283C6.81853 66.4876 3.18217 69.9248 3.18217 72.073C2.72763 73.7916 3.18217 75.9398 4.54581 77.2288C5.00035 77.6584 6.81854 78.9473 7.27308 79.377L39.5458 96.9925C40.4549 97.4222 41.364 97.8518 42.2731 97.8518C42.7276 97.8518 43.1822 97.8518 43.6367 97.8518C44.5458 97.8518 46.8185 96.9925 47.2731 96.5628L92.2731 72.5027C94.0913 71.6434 97.7276 68.2062 97.7276 66.058C98.1822 64.3394 97.7276 62.1911 96.364 60.9022C95.9095 60.4725 94.5458 59.6133 94.0913 59.1836L62.7276 41.9978C61.8185 41.5681 59.5458 40.7088 58.6367 40.7088C58.1822 40.7088 57.7276 40.7088 57.2731 40.7088C56.364 40.2792 55.4549 40.2792 54.5458 40.7088Z" fill="#E9EAEC"/>
<path d="M54.5457 41.1385L9.0911 66.058C7.27292 66.9173 3.18201 70.3545 3.18201 72.5027C2.72747 74.2213 2.72746 75.9398 4.0911 77.2288C4.54564 77.6584 6.36383 78.9473 6.81837 79.377L39.0911 96.9925C40.0002 97.4221 40.9093 97.8518 41.8184 97.4221C42.2729 97.4221 42.7275 97.4221 43.182 97.4221C44.0911 97.4221 46.3638 96.5629 46.8184 96.1332L91.3638 72.5027C93.182 71.6434 96.8184 68.2062 96.8184 66.4876C97.7275 64.769 96.8184 62.6208 95.4548 61.3319C95.0002 60.9022 93.6366 60.0429 93.182 59.6133L62.2729 42.4275C61.3638 41.9978 59.0911 41.1385 58.182 41.1385C57.7275 41.1385 57.2729 41.1385 56.8184 41.1385C56.3638 40.2792 55.4547 40.7089 54.5457 41.1385Z" fill="#E7E7E9"/>
<path d="M54.5456 41.5681L9.09104 66.058C7.27285 66.9172 3.18195 70.3544 3.18195 72.073C2.27286 73.7915 2.7274 75.5102 4.09103 76.7991C4.54558 77.2287 6.36376 78.5177 6.81831 78.9473L39.091 96.5627C40.0001 96.9924 40.9092 97.4221 41.8183 96.9924C42.2729 96.9924 42.7274 96.9924 42.7274 96.9924C43.6365 96.9924 45.9092 96.1331 46.3638 95.7035L90.4547 72.073C92.2729 71.2137 95.9092 67.7765 95.9092 66.058C96.8183 64.3394 96.3638 62.1911 94.5456 60.9022C94.091 60.4725 92.7274 59.6132 92.2729 59.1836L61.8183 41.9978C60.9092 41.5681 58.6365 40.7088 57.7274 40.7088C57.2729 40.7088 56.8183 40.2792 56.3638 40.7088C56.8183 40.7088 55.4547 41.1385 54.5456 41.5681Z" fill="#E4E4E7"/>
<path d="M55.0002 41.568L10.0002 66.0579C8.63659 66.9172 4.09113 70.3543 4.09113 72.0729C3.18203 73.3618 3.63658 75.5101 5.00022 76.799C5.45477 77.2287 7.27295 78.5176 7.7275 78.9473L39.5457 96.1331C40.4548 96.5627 41.3639 96.5627 42.2729 96.5627C42.7275 96.5627 43.182 96.5627 43.182 96.5627C44.0911 96.5627 46.3639 95.7034 46.8184 95.2737L90.4548 72.0729C91.8184 71.2136 95.9093 68.2061 96.3639 66.4875C97.273 64.7689 96.8184 62.6207 95.0002 61.3318C94.5457 60.9021 93.1821 60.0428 92.7275 59.6132L62.273 42.857C61.3639 42.4273 59.0911 41.568 58.182 41.568C57.7275 41.568 57.2729 41.1384 56.8184 41.568C56.8184 41.1384 55.9093 41.1384 55.0002 41.568Z" fill="#E1E2E4"/>
<path d="M54.9998 41.9978L10.4543 66.058C9.09068 66.9172 4.54523 70.3544 4.54523 71.6433C3.63614 72.9322 4.09069 75.0805 5.45432 76.3694C5.90887 76.7991 7.72704 78.088 8.18159 78.5177L39.9998 95.7035C40.9089 96.1331 41.818 96.1331 42.7271 96.1331H43.6361C44.5452 96.1331 46.818 95.2738 47.2725 94.8442L90.4543 72.073C91.818 71.2137 96.3634 68.2061 96.3634 66.4876C97.2725 64.769 96.818 62.6208 95.4543 61.3318C94.9998 60.9022 93.6361 60.0429 93.1816 60.0429L63.1816 43.2867C62.7271 42.8571 59.9998 41.9978 59.5452 41.9978C59.5452 41.9978 58.6361 41.5681 58.1816 41.5681C56.818 41.1385 55.9089 41.5681 54.9998 41.9978Z" fill="#DFDFE2"/>
<path d="M55.0004 41.9978L10.4549 66.058C9.09128 66.9173 4.09128 70.3544 4.09128 71.6433C3.18219 72.9322 3.18219 75.0805 5.00037 76.3694C5.45492 76.7991 7.2731 78.088 7.72765 78.5177L39.5458 95.7035C40.4549 96.1331 41.364 96.1332 42.2731 96.1332H43.1822C43.6367 96.1332 46.364 95.2739 46.8186 94.8442L89.5458 72.073C90.9095 71.2137 95.4549 68.2062 95.4549 66.4876C96.364 65.1986 95.9095 62.6208 94.5458 61.3318C94.0913 60.9022 92.7277 60.0429 92.2731 60.0429L62.2731 43.2867C61.8186 42.8571 59.0913 41.5681 58.6368 41.5681C58.6368 41.5681 57.7276 41.1385 57.2731 41.1385C56.8186 41.5681 55.9095 41.5681 55.0004 41.9978Z" fill="#DCDDDF"/>
<path d="M55.455 42.4274L11.3641 66.4876C10.455 66.9172 5.00046 70.784 5.00046 72.073C4.09137 73.3619 4.09137 75.5101 5.90955 76.7991C6.36409 77.2287 8.18228 78.5177 8.63682 78.9473L40.0005 96.1331C40.9095 96.5628 41.8186 96.5627 42.7277 96.5627H43.6368C44.0914 96.5627 46.8186 95.2738 47.2732 95.2738L89.5459 72.9322C90.455 72.5026 95.455 69.0654 95.455 67.7765C96.3641 66.4876 96.3641 63.9097 94.5459 63.0504C94.0914 62.6207 92.7277 61.7615 92.2732 61.7615L62.7277 45.4349C62.2732 45.0053 59.5459 43.7163 59.0914 43.7163C59.0914 43.7163 58.1823 43.2867 57.7277 43.2867C57.2732 41.9978 56.3641 41.9978 55.455 42.4274Z" fill="#D9DADD"/>
<path d="M55.4549 42.4275L11.8185 66.058C10.9094 66.4876 5.45487 70.3544 5.45487 71.2137C4.54578 72.5027 4.54577 74.6508 5.90941 75.9398C6.36396 76.3694 8.63668 77.6584 8.63668 77.6584L40.0003 94.8442C40.9094 95.2738 41.8185 95.2738 42.7276 95.2738L43.6367 94.8442C44.0912 94.8442 46.8185 93.5552 47.2731 93.5552L89.0912 71.2137C90.0003 70.7841 95.0003 67.3469 95.0003 66.058C96.364 64.7691 95.9094 62.1912 94.0912 61.3319C93.6367 60.9022 92.273 60.0429 91.8185 60.0429L62.7276 43.7164C62.273 43.2868 59.5458 41.9978 59.0912 41.9978C59.0912 41.9978 58.1821 41.5682 57.7276 41.5682C57.273 41.9978 56.364 41.9979 55.4549 42.4275Z" fill="#D7D7DA"/>
<path d="M55.4542 42.8571L11.8179 66.4876C10.9088 66.9172 5.45422 70.784 5.45422 71.6433C4.09058 72.9322 4.54512 75.0805 5.90876 76.3694C6.3633 76.7991 8.63603 78.088 8.63603 78.088L39.9997 95.2738C40.9088 95.7034 41.8178 95.7035 42.7269 95.7035L43.636 95.2738C44.0906 95.2738 46.3633 93.9849 46.8178 93.9849L88.1815 72.073C89.0906 71.6433 94.0906 68.2061 94.0906 67.3469C95.4542 66.0579 94.9996 63.9097 93.636 62.6208C93.636 62.1912 91.8178 61.3318 91.3633 61.3318L62.2724 45.0053C61.8178 44.5757 59.0906 43.2868 58.636 43.2868L57.7269 42.8571C57.2724 42.4274 56.3633 42.4274 55.4542 42.8571Z" fill="#D4D5D8"/>
<path d="M55.9093 43.2868L12.7275 66.4876C11.8184 66.9173 5.9093 70.7841 5.9093 71.2138C4.54566 72.5027 5.00021 74.6509 6.36384 75.9398C6.36384 76.3695 9.09112 77.6584 9.09112 77.6584L40.4548 94.4146C41.3639 94.8442 42.2729 94.8443 43.182 94.8443L44.0911 94.4146C44.5457 94.4146 46.8184 93.1256 47.273 93.1256L88.1821 71.2138C89.0911 70.7841 94.5457 67.3469 94.5457 66.4876C95.9093 65.1987 95.4548 63.0505 94.0911 61.7616C94.0911 61.7616 92.273 60.4726 91.8184 60.4726L63.182 44.5758C62.7275 44.5758 60.0002 42.8572 59.5457 42.8572L58.6366 42.4276C57.273 42.4276 56.3639 42.8572 55.9093 43.2868Z" fill="#D1D2D6"/>
<path d="M55.9091 43.2868L13.1818 66.4876C12.7273 66.9173 6.36362 70.3545 6.36362 71.2137C4.99998 72.5027 4.99998 74.6509 6.81817 75.9398C6.81817 75.9398 9.54544 77.6584 9.99999 77.6584L40.9091 94.4146C41.8182 94.8442 42.7273 94.8443 43.6363 94.8443L44.5454 94.4146C45 94.4146 47.2727 93.1256 47.7273 93.1256L88.1818 71.6433C88.6364 71.2137 94.5455 67.7765 94.5455 67.3469C95.9091 66.058 95.9091 63.9098 94.0909 62.6208C94.0909 62.6208 92.2727 61.3319 91.8182 61.3319L63.1818 45.435C62.7273 45.435 60 43.7164 59.5454 43.7164L58.6364 43.2868C57.7273 42.8571 56.8182 42.8571 55.9091 43.2868Z" fill="#CECFD3"/>
<path d="M55.9091 43.7163L13.1818 66.9173C12.7273 67.3469 6.36362 70.784 6.36362 71.6433C4.99998 72.9323 4.99998 75.0805 6.81817 75.9398C6.81817 75.9398 9.54544 77.6584 9.99999 77.6584L40.9091 94.4146C41.8182 94.8442 42.7272 94.8442 43.6363 94.4146L44.5454 93.985C45 93.985 47.2727 92.696 47.7273 92.696L87.7273 71.6433C88.1818 71.2137 94.0909 67.7765 94.0909 67.3469C95.4545 66.0579 95.4545 63.9097 93.6363 62.6208C93.6363 62.6208 91.8182 61.3319 91.3636 61.3319L63.1818 45.8646C62.7273 45.8646 60 44.146 59.5454 44.146L58.6364 43.7163C57.7273 43.2867 56.8182 43.2867 55.9091 43.7163Z" fill="#CCCDD1"/>
<path d="M56.3637 43.7163L14.091 66.4875C13.6364 66.4875 7.2728 70.3544 7.2728 70.784C5.90916 71.6433 5.90916 74.2212 7.72735 75.0805C7.72735 75.0805 10.4546 76.7991 10.9092 76.7991L41.8183 93.5552C42.7273 93.9849 43.6364 93.9849 44.5455 93.5552L45.4546 93.1256C45.4546 93.1256 48.1819 91.8367 48.6364 91.8367L88.1819 70.784C88.6365 70.784 94.5455 66.9172 94.5455 66.4875C95.9092 65.1986 95.9092 63.0504 94.091 62.1911C94.091 62.1911 92.2728 60.9021 91.8183 60.9021L64.091 45.4349L60.9092 43.7163L60.0001 43.2867C57.7273 43.2867 56.8183 43.2866 56.3637 43.7163Z" fill="#C9CACE"/>
<path d="M56.3636 44.1461L14.5455 66.9173C14.0909 66.9173 7.27273 70.7841 7.27273 71.2137C5.90909 72.073 5.90909 74.6509 7.27273 75.5102C7.27273 75.5102 9.99999 77.2288 10.4545 77.2288L40.9091 93.985C41.8182 94.4146 42.7273 94.4146 43.1818 93.985L44.0909 93.5553C44.0909 93.5553 46.8182 92.2664 47.2727 91.8367L86.3636 71.2137C86.8182 71.2137 92.7273 67.3469 92.7273 67.3469C94.0909 66.4876 94.0909 63.9097 92.7273 63.0505C92.7273 63.0505 90.9091 61.7616 90.4546 61.7616L62.7273 46.2943L59.5454 44.5758L58.6364 44.1461C58.1818 43.7164 57.2727 43.7164 56.3636 44.1461Z" fill="#C6C7CC"/>
<path d="M56.3633 44.1461L14.9996 66.4876C14.9996 66.4876 7.72692 70.3544 7.72692 70.7841C5.90874 71.6434 5.90874 74.2212 7.72692 75.0805C7.72692 75.0805 10.4542 76.7991 10.9087 76.7991L41.3633 93.5553C42.2724 93.9849 43.1815 93.9849 43.636 93.5553L44.5451 93.1256C44.5451 93.1256 47.2724 91.407 47.7269 91.407L86.3633 70.7841C86.3633 70.7841 93.1815 67.3469 93.1815 66.9173C94.9997 66.058 94.9997 63.4801 93.1815 62.6208C93.1815 62.6208 91.3633 61.3319 90.9087 61.3319L63.636 46.2943L60.4542 44.5758L59.5451 44.1461C58.1815 43.7164 57.2724 43.7164 56.3633 44.1461Z" fill="#C4C5C9"/>
<path d="M59.0901 44.5757C58.181 44.1461 57.2719 44.1461 56.8174 44.5757L8.18102 70.784C6.36284 71.6433 6.36284 74.2212 8.18102 75.0805L41.3628 93.1256C42.2719 93.5552 43.181 93.5552 43.6356 93.1256L92.2719 67.3469C94.0901 66.4876 94.0901 63.9097 92.2719 63.0504L59.0901 44.5757Z" fill="#C1C2C7"/>
<path d="M92.2719 23.523L43.6356 49.3017C42.7265 49.7314 41.8174 49.7314 41.3628 49.3017L8.18102 31.2566C6.81738 30.3973 6.36284 28.6788 7.72648 27.3899C6.81739 27.8195 6.81738 29.1084 6.81738 29.9677V72.5026C6.81738 73.7916 7.72647 75.0805 8.63556 75.5101L41.8174 93.5552C42.7265 93.9849 44.0901 93.9849 45.4537 93.5552L93.181 68.2062C94.5447 67.7765 94.9992 66.4875 94.9992 65.1986V22.2341C94.9992 21.3748 94.5447 20.9451 94.0901 20.5155C93.6356 20.9451 93.6356 22.6637 92.2719 23.523Z" fill="url(#paint0_linear_15_24581)"/>
<path d="M39.9996 59.6133L6.36328 41.1385V47.1535L39.9996 65.6283C40.9087 66.0579 41.8178 66.0579 42.7269 65.6283L94.0905 38.5606V32.5455L42.7269 59.6133C41.8178 60.4725 40.9087 60.0429 39.9996 59.6133Z" fill="url(#paint1_linear_15_24581)"/>
<path d="M39.9996 75.9398L6.36328 57.4651V63.4801L39.9996 81.9548C40.9087 82.3845 41.8178 82.3845 42.7269 81.9548L94.0905 54.8872V48.8723L42.7269 75.9398C41.8178 76.3694 40.9087 76.3694 39.9996 75.9398Z" fill="url(#paint2_linear_15_24581)"/>
<path d="M58.636 0.322234C57.7269 -0.107411 56.8178 -0.107411 56.3633 0.322234L7.72692 26.5306C5.90874 27.3899 5.90874 29.9677 7.72692 30.827L40.9087 48.8722C41.8178 49.3018 42.7269 49.3018 43.1815 48.8722L91.8178 23.0935C93.636 22.2342 93.636 19.6563 91.8178 18.797L58.636 0.322234Z" fill="#F8F6FB"/>
<path d="M28.1816 27.8195L44.5453 36.842L71.818 21.8045L55.4544 12.782L28.1816 27.8195Z" fill="url(#paint3_linear_15_24581)"/>
<path d="M55.4551 13.2116V30.8269L71.8187 21.8045L55.4551 12.782V13.2116Z" fill="url(#paint4_linear_15_24581)"/>
<defs>
<linearGradient id="paint0_linear_15_24581" x1="6.13602" y1="56.7123" x2="94.0619" y2="56.7123" gradientUnits="userSpaceOnUse">
<stop offset="8e-08" stop-color="#C8D6F9"/>
<stop offset="1" stop-color="#BAC1E8"/>
</linearGradient>
<linearGradient id="paint1_linear_15_24581" x1="6.14328" y1="49.4031" x2="93.9096" y2="49.4031" gradientUnits="userSpaceOnUse">
<stop stop-color="#5752D0"/>
<stop offset="1" stop-color="#7F7CF9"/>
</linearGradient>
<linearGradient id="paint2_linear_15_24581" x1="6.14328" y1="65.4733" x2="93.9096" y2="65.4733" gradientUnits="userSpaceOnUse">
<stop stop-color="#5752D0"/>
<stop offset="1" stop-color="#7F7CF9"/>
</linearGradient>
<linearGradient id="paint3_linear_15_24581" x1="28.1803" y1="24.8245" x2="71.888" y2="24.8245" gradientUnits="userSpaceOnUse">
<stop stop-color="#FF6279"/>
<stop offset="1" stop-color="#FFAD60"/>
</linearGradient>
<linearGradient id="paint4_linear_15_24581" x1="55.6001" y1="21.8289" x2="71.8887" y2="21.8289" gradientUnits="userSpaceOnUse">
<stop stop-color="#FF6279"/>
<stop offset="1" stop-color="#FFAD60"/>
</linearGradient>
</defs>
</svg>
