<svg width="91" height="100" viewBox="0 0 91 100" fill="none" xmlns="http://www.w3.org/2000/svg">
<path d="M86.9115 70.5063L48.7924 51.8394C47.7033 51.2794 46.6142 51.0927 45.3072 51.0927C44.0003 51.0927 42.9112 51.466 41.822 51.8394L3.70296 69.5729C1.52472 70.693 0 72.933 0 75.173C0 77.4131 1.52472 79.6531 3.70296 80.7731L41.822 99.2533C42.9112 99.8133 44.0003 100 45.3072 100C46.6142 100 47.7033 99.8133 48.7924 99.2533L86.9115 81.7064C89.0897 80.5864 90.6145 78.5331 90.6145 76.1064C90.6145 73.6797 89.0897 71.6263 86.9115 70.5063Z" fill="white"/>
<path d="M41.823 52.026L3.92171 69.7596C3.05042 70.1329 2.17912 70.8796 1.74348 71.6263C0.872184 72.7463 0.436524 74.053 0.436524 75.3596C0.436524 77.5997 2.17915 79.6531 4.35738 80.7731L42.2586 99.0666C42.9121 99.44 43.7834 99.6266 44.4369 99.6266C44.8725 99.6266 45.3082 99.6266 45.7438 99.6266C46.8329 99.6266 48.1398 99.2533 49.229 98.88L87.1303 81.5197C87.7837 81.1464 88.655 80.5864 89.0907 80.0264C90.1798 78.9064 90.8332 77.413 90.6154 75.9197C90.6154 73.6796 89.0907 71.6263 86.9124 70.5063L49.0112 52.026C47.9221 51.466 46.8329 51.2793 45.526 51.2793C45.0903 51.2793 44.8725 51.2793 44.4369 51.2793C43.3478 51.2793 42.4764 51.6527 41.823 52.026Z" fill="#FCFCFD"/>
<path d="M41.8211 52.026L3.91982 69.7596C3.04853 70.1329 2.17722 70.8796 1.52375 71.4396C0.652457 72.5596 0.216797 73.8663 0.216797 75.173C0.216797 77.2263 1.95942 79.4663 4.13766 80.3997L41.8211 98.6933C42.4745 99.0666 43.3458 99.2533 43.9993 99.2533C44.435 99.2533 44.8706 99.2533 45.0884 99.2533C46.1775 99.2533 47.4845 98.8799 48.5736 98.3199L86.257 80.9597C86.9105 80.5864 87.7818 80.0263 88.2175 79.4663C89.3066 78.3463 89.7422 76.853 89.7422 75.5463C89.7422 73.4929 87.9996 71.2529 85.8214 70.3196L48.3558 52.026C47.4845 51.466 46.1775 51.2793 45.0884 51.2793C44.6528 51.2793 44.435 51.2793 43.9993 51.2793C43.3458 51.466 42.6924 51.6527 41.8211 52.026Z" fill="#FAFAFA"/>
<path d="M42.0405 52.2128L4.3571 69.9463C3.48581 70.3196 2.6145 71.0663 1.96103 71.6263C1.08974 72.5597 0.654092 74.053 0.871916 75.3597C0.871916 77.4131 2.8323 79.6531 4.79271 80.5864L42.2583 98.6933C42.9118 99.0666 43.7831 99.2533 44.4366 99.2533C44.8722 99.2533 45.3079 99.2533 45.5257 99.2533C46.6148 99.2533 47.9217 98.88 49.0109 98.32L86.4764 81.1464C87.1299 80.7731 88.0012 80.2131 88.4368 79.6531C89.5259 78.5331 89.9616 77.0397 89.9616 75.733C89.9616 73.6797 88.0012 71.6263 86.0408 70.5063L49.0109 52.3994C48.1396 52.0261 46.8326 51.4661 45.7435 51.4661C45.5257 51.4661 45.09 51.4661 44.6544 51.4661C43.5653 51.6527 42.694 51.8394 42.0405 52.2128Z" fill="#F7F7F8"/>
<path d="M42.0405 52.3994L4.3571 69.9463C3.70363 70.3196 2.6145 71.0663 1.96103 71.6263C1.08974 72.5597 0.654092 74.053 0.871915 75.3597C0.871915 77.2264 3.05013 79.4664 5.01054 80.3998L42.2583 98.32C42.9118 98.6933 43.5653 98.88 44.4365 98.88C44.8722 98.88 45.3078 98.88 45.5257 98.88C46.6148 98.88 47.9217 98.5067 48.793 97.9467L85.8229 80.9598C86.4764 80.5864 87.3477 80.0264 87.7833 79.6531C88.8724 78.5331 89.3081 77.0397 89.0903 75.733C89.0903 73.8663 86.912 71.6263 85.1694 70.693L48.3573 52.5861C47.486 52.2127 46.1791 51.6527 45.09 51.6527C44.8722 51.6527 44.4365 51.6527 44.0009 51.6527C43.5652 51.8394 42.9118 52.0261 42.0405 52.3994Z" fill="#F4F4F5"/>
<path d="M42.2583 52.5861L4.79265 70.1329C4.13918 70.5063 2.83223 71.253 2.39658 71.813C1.52529 72.7463 1.08964 74.2397 1.30746 75.3597C1.30746 77.2264 3.70357 79.4664 5.44616 80.2131L42.4761 98.1333C43.1296 98.5067 43.783 98.6933 44.6543 98.6933C44.8722 98.6933 45.5256 98.6933 45.7435 98.6933C46.6147 98.6933 48.1395 98.1333 49.0108 97.76L85.8229 80.7731C86.4764 80.3998 87.3477 79.8397 87.7833 79.4664C88.8724 78.5331 89.3081 76.8531 89.0903 75.5464C89.0903 73.6797 86.912 71.4396 85.1694 70.693L48.793 52.7727C47.9217 52.3994 46.3969 51.8394 45.5256 51.8394C45.3078 51.8394 44.8721 51.8394 44.4365 51.8394C43.783 52.0261 42.9117 52.2127 42.2583 52.5861Z" fill="#F2F2F3"/>
<path d="M42.2582 52.7728L4.79253 70.3197C4.13907 70.693 2.83211 71.4397 2.39647 71.9997C1.30735 72.933 1.08953 74.4264 1.30735 75.5464C1.30735 77.2264 3.92123 79.4664 5.66381 80.3998L42.2582 98.1334C42.9116 98.5067 43.5651 98.6934 44.4364 98.6934C44.6542 98.6934 45.3077 98.6934 45.5255 98.6934C46.3968 98.6934 47.9216 98.1334 48.7928 97.76L85.3871 80.9598C86.0406 80.5865 86.9119 80.0265 87.3475 79.6531C88.4366 78.7198 88.8723 77.2264 88.6545 75.9197C88.6545 74.2397 86.2584 71.9997 84.5158 71.0663L48.575 53.3327C47.7037 52.9594 46.179 52.3994 45.3077 52.3994C45.0898 52.3994 44.6542 52.3994 44.2185 52.3994C43.7829 52.2127 43.1294 52.3994 42.2582 52.7728Z" fill="#EFEFF0"/>
<path d="M42.4756 52.9594L5.22772 70.3196C4.57425 70.693 3.26729 71.4396 2.83165 71.9996C1.74253 72.933 1.52472 74.4263 1.96037 75.5464C1.96037 77.2264 4.79207 79.4664 6.31684 80.2131L42.6933 97.76C43.3468 98.1333 44.0003 98.32 44.8716 98.32C45.0894 98.32 45.7428 98.32 45.9607 98.32C46.832 98.32 48.5746 97.76 49.228 97.3866L85.6046 80.5864C86.258 80.3998 87.1293 79.6531 87.565 79.2797C88.6541 78.3464 89.0897 76.853 88.6541 75.5464C88.6541 73.8663 86.0402 71.6263 84.5155 70.8796L48.7924 53.3327C48.1389 52.9594 46.3964 52.3994 45.7429 52.3994C45.5251 52.3994 45.0894 52.2127 44.6538 52.3994C44.0003 52.3994 43.129 52.586 42.4756 52.9594Z" fill="#ECECEE"/>
<path d="M42.4755 53.1461L5.22771 70.5063C4.57424 70.8796 3.26729 71.6263 2.83165 72.1863C1.74253 73.1197 1.52472 74.613 1.96037 75.733C1.96037 77.2264 5.00989 79.6531 6.31683 80.2131L42.4755 97.76C43.129 98.1333 43.7824 98.1333 44.6537 98.1333C44.8715 98.1333 45.525 98.1333 45.7428 98.1333C46.6141 98.1333 48.3567 97.5733 49.0102 97.2L85.1688 80.5864C85.6044 80.3998 86.9114 79.6531 87.1292 79.2798C88.2184 78.3464 88.654 76.8531 88.2184 75.5464C88.2184 74.053 85.3866 71.813 84.0797 71.0663L48.7924 53.7061C48.1389 53.3327 46.3963 52.7727 45.7428 52.7727C45.525 52.7727 45.0893 52.5861 44.8715 52.7727C44.0002 52.5861 43.3468 52.7727 42.4755 53.1461Z" fill="#E9EAEC"/>
<path d="M42.6923 53.3327L5.66227 70.693C5.0088 70.8796 3.70191 71.813 3.26627 72.1863C2.17715 73.1197 1.95927 74.613 2.39492 75.733C2.39492 77.2264 5.44446 79.4664 6.96923 80.2131L42.9101 97.5733C43.5636 97.9467 44.217 97.9467 45.0883 97.9467C45.3062 97.9467 45.9596 97.76 46.1774 97.76C46.8309 97.76 48.7913 97.0133 49.4448 96.8266L85.3857 80.2131C85.8213 80.0264 87.1282 79.2797 87.3461 78.9064C88.4352 77.9731 88.8708 76.4797 88.4352 75.173C88.4352 73.6797 85.6035 71.4396 84.0787 70.8796L49.227 53.7061C48.5735 53.3327 46.8309 52.7727 46.1774 52.7727C45.9596 52.7727 45.524 52.5861 45.3062 52.5861C44.217 52.7727 43.3457 52.9594 42.6923 53.3327Z" fill="#E7E7E9"/>
<path d="M42.6941 53.5195L5.66415 70.8797C5.2285 71.0663 3.70379 71.9997 3.26815 72.373C2.17903 73.3064 1.96117 74.7997 2.61464 75.9197C2.61464 77.2264 5.882 79.6531 7.18894 80.2131L42.912 97.3867C43.5654 97.76 44.2189 97.76 45.0902 97.76C45.308 97.76 45.9615 97.5734 46.1793 97.5734C46.8328 97.5734 48.7932 96.8267 49.2288 96.64L84.9519 80.2131C85.3875 80.0265 86.6945 79.2798 86.9123 78.9065C88.0014 77.9731 88.4371 76.4797 87.7836 75.3597C87.7836 74.053 84.7341 71.813 83.4271 71.0663L48.7932 54.0795C48.1397 53.7061 46.3972 53.1461 45.7437 53.1461C45.5259 53.1461 45.0902 52.9594 44.8724 52.9594C44.2189 52.9594 43.5654 53.1461 42.6941 53.5195Z" fill="#E4E4E7"/>
<path d="M42.9109 53.7061L6.09874 70.8796C5.66309 71.0663 3.92049 71.9997 3.70267 72.373C2.61355 73.3063 2.39576 74.7997 3.04923 75.733C3.04923 76.853 6.53436 79.2797 7.8413 80.0264L43.3466 97.1999C44 97.5733 44.6535 97.5733 45.307 97.5733C45.5248 97.5733 46.1782 97.3866 46.3961 97.3866C47.0495 97.3866 49.0099 96.6399 49.4456 96.4533L84.9508 80.2131C85.3865 80.0264 86.6934 79.2797 86.9112 78.9064C88.0003 77.9731 88.436 76.4797 87.7825 75.3597C87.7825 74.2397 84.5152 71.813 83.426 71.253L49.2277 54.4528C48.5743 54.2661 46.8317 53.5194 46.1782 53.5194C45.9604 53.5194 45.5248 53.3328 45.307 53.3328C44.4357 53.1461 43.5644 53.3328 42.9109 53.7061Z" fill="#E1E2E4"/>
<path d="M42.9109 53.8927L6.09874 71.0663C5.6631 71.2529 3.92049 72.1863 3.70267 72.5596C2.61355 73.493 2.39576 74.9863 3.04923 75.9197C3.04923 77.0397 6.75219 79.4664 7.8413 80.0264L43.1287 97.0133C43.7822 97.3866 44.4357 97.3866 45.0891 97.3866C45.3069 97.3866 45.9604 97.1999 46.1782 97.1999C46.8317 97.1999 48.7921 96.4533 49.2278 96.0799L84.2973 79.8397C84.733 79.6531 86.0399 78.9064 86.2577 78.7197C87.5647 77.7864 87.7826 76.293 87.1291 75.173C87.1291 74.053 83.6439 71.813 82.5548 71.2529L48.7921 54.6394C48.3565 54.4527 46.3961 53.7061 45.9604 53.7061C45.7426 53.7061 45.3069 53.5194 45.0891 53.5194C44.4357 53.3327 43.7822 53.5194 42.9109 53.8927Z" fill="#DFDFE2"/>
<path d="M43.1286 54.0794L6.53433 71.253C6.09869 71.4397 4.35609 72.373 4.13826 72.7464C3.04915 73.6797 2.83128 75.1731 3.48475 76.1064C3.48475 77.0398 7.4056 79.6531 8.2769 80.0264L43.1286 96.8267C43.7821 97.2 44.4356 97.2 45.089 97.2C45.3069 97.2 45.9603 97.0133 46.1782 97.0133C46.6138 97.0133 48.792 96.2667 49.2277 95.8933L84.0794 79.8398C84.5151 79.6531 85.8221 78.9064 86.0399 78.7198C87.3468 77.7864 87.5646 76.2931 86.6933 75.1731C86.6933 74.2397 83.2081 71.813 82.119 71.253L48.5742 54.8261C48.1386 54.6394 46.1782 53.8928 45.7426 53.8928C45.5247 53.8928 45.089 53.7061 44.8712 53.7061C44.6534 53.5194 43.7821 53.7061 43.1286 54.0794Z" fill="#DCDDDF"/>
<path d="M43.1287 54.2661L6.5344 71.4396C6.09875 71.6263 4.35615 72.5596 4.13833 72.933C3.04921 73.6796 2.83136 75.3597 3.70266 76.293C3.70266 77.2264 7.84134 79.6531 8.71263 80.2131L43.3465 97.0133C44 97.3866 44.6535 97.3866 45.3069 97.2C45.5248 97.2 46.1782 97.0133 46.396 97.0133C46.8317 97.0133 49.0099 96.0799 49.4456 95.8933L84.0795 79.8397C84.2973 79.6531 85.8221 78.9064 86.0399 78.7197C87.3469 77.7864 87.5647 76.293 86.6934 75.173C86.6934 74.2397 82.9904 71.813 82.1191 71.4396L49.0099 55.1994C48.5743 55.0127 46.6139 54.0794 46.1782 54.0794C45.9604 54.0794 45.5248 53.8927 45.3069 53.8927C44.6535 53.7061 43.7822 53.8927 43.1287 54.2661Z" fill="#D9DADD"/>
<path d="M43.3474 54.4527L6.97088 71.4396C6.75306 71.6263 4.79264 72.5596 4.57481 72.933C3.4857 73.6796 3.26791 75.3597 4.13921 76.293C4.13921 77.0397 8.49564 79.6531 9.14911 80.0264L43.5652 96.64C44.2187 97.0133 44.8721 97.0133 45.5256 96.8266C45.7434 96.8266 46.3969 96.64 46.6147 96.64C47.0504 96.64 49.2286 95.7066 49.6642 95.5199L84.0802 79.6531C84.2981 79.4664 85.8229 78.7197 86.0407 78.533C87.3476 77.7864 87.5654 76.1064 86.6941 75.173C86.6941 74.4263 82.7733 71.9996 81.902 71.6263L49.2285 55.5728C48.7929 55.3861 46.8325 54.4527 46.3969 54.4527C46.179 54.4527 45.7434 54.2661 45.5256 54.2661C44.6543 53.8927 44.0008 54.0794 43.3474 54.4527Z" fill="#D7D7DA"/>
<path d="M43.3457 54.4527L6.9692 71.4396C6.75138 71.6263 4.79096 72.5596 4.57314 72.7463C3.2662 73.493 3.26624 75.173 4.13753 76.1064C4.13753 76.853 8.49398 79.4664 9.36527 79.6531L43.5635 96.2666C44.217 96.6399 44.8705 96.6399 45.5239 96.4533C45.7417 96.4533 46.3952 96.2666 46.3952 96.2666C46.8308 96.2666 49.0091 95.3333 49.4447 95.1466L83.643 79.4664C83.8608 79.2797 85.3855 78.533 85.6034 78.3464C86.9103 77.5997 87.1281 75.9197 86.039 74.9863C86.039 74.2397 81.9004 71.813 81.2469 71.4396L48.7913 55.5727C48.5734 55.3861 46.3952 54.4527 45.9595 54.4527C45.7417 54.4527 45.3061 54.266 45.0883 54.266C44.8704 54.0794 43.9992 54.2661 43.3457 54.4527Z" fill="#D4D5D8"/>
<path d="M43.5645 54.6395L7.40577 71.6263C7.18795 71.813 5.0097 72.7463 5.0097 72.933C3.70276 73.6797 3.70273 75.3597 4.57403 76.1064C4.57403 76.6664 9.14837 79.2798 9.80185 79.6531L43.7823 96.08C44.4357 96.4533 45.0893 96.4533 45.7427 96.2667L46.614 96.08C46.8318 96.08 49.2279 95.1467 49.4457 94.96L83.4262 79.2798C83.644 79.0931 85.3866 78.3464 85.3866 78.1598C86.6935 77.4131 86.9114 75.7331 85.8223 74.7997C85.8223 74.2397 81.6836 71.813 81.0301 71.4397L49.0101 55.7595C48.7923 55.5728 46.614 54.6395 46.3962 54.6395C46.3962 54.6395 45.7427 54.4528 45.5249 54.4528C44.8714 54.2661 44.218 54.4528 43.5645 54.6395Z" fill="#D1D2D6"/>
<path d="M43.7828 54.8261L7.62412 71.6263C7.4063 71.8129 5.22805 72.7463 5.22805 72.933C3.92111 73.6796 3.9211 75.3597 5.01022 76.1064C5.01022 76.6664 9.80232 79.2797 10.238 79.4664L44.0006 95.7066C44.6541 96.08 45.3075 96.0799 45.961 95.8933L46.8323 95.5199C47.0502 95.5199 49.4462 94.3999 49.664 94.3999L83.4266 78.9064C83.6445 78.9064 85.387 77.973 85.387 77.7864C86.694 77.0397 86.9118 75.3597 85.8227 74.4263C85.8227 73.8663 81.4662 71.4396 81.0306 71.2529L49.4462 55.7594C49.2284 55.5727 47.0502 54.6394 46.8323 54.6394C46.8323 54.6394 46.1788 54.2661 45.961 54.4527C45.0897 54.4527 44.2184 54.6394 43.7828 54.8261Z" fill="#CECFD3"/>
<path d="M43.7817 55.0128L7.84085 71.813C7.62303 71.813 5.44485 72.933 5.44485 73.1197C4.13791 73.8664 4.1379 75.5464 5.22701 76.2931C5.22701 76.6664 10.237 79.2798 10.6726 79.4664L44.2174 95.7067C44.8709 96.08 45.5243 96.08 46.1778 95.8933L47.0491 95.52C47.2669 95.52 49.663 94.3999 49.8808 94.3999L83.4256 78.9064C83.6434 78.9064 85.386 77.9731 85.386 77.9731C86.693 77.2264 86.693 75.5464 85.6039 74.7997C85.6039 74.4264 81.0296 71.9997 80.5939 71.813L49.2273 56.5061C49.0095 56.5061 46.8313 55.3861 46.6135 55.3861C46.6135 55.3861 45.96 55.0128 45.7422 55.0128C45.0887 54.6395 44.4352 54.8261 43.7817 55.0128Z" fill="#CCCDD1"/>
<path d="M43.9995 55.1995L8.05869 71.9997C7.84086 71.9997 5.66267 73.1197 5.44485 73.3064C4.13791 74.0531 4.1379 75.7331 5.22701 76.4798C5.22701 76.8531 10.4548 79.4665 10.6726 79.6531L43.7817 95.7067C44.4351 96.08 45.0887 96.08 45.7421 95.7067L46.6134 95.3333C46.8312 95.3333 49.2273 94.2133 49.4451 94.2133L82.7721 78.9065L84.7325 77.9731C86.0394 77.2264 86.0394 75.5464 84.9503 74.7997C84.9503 74.4264 80.1582 71.9997 79.9403 71.813L49.0095 56.6928C48.7917 56.6928 46.6134 55.5728 46.3956 55.5728C46.3956 55.5728 45.7421 55.1995 45.5243 55.1995C45.3065 54.8261 44.4352 55.0128 43.9995 55.1995Z" fill="#C9CACE"/>
<path d="M44.0007 55.3861L8.2777 72.1863C8.2777 72.1863 5.88162 73.3063 5.6638 73.493C4.35686 74.2396 4.35686 75.9197 5.6638 76.6663C5.6638 76.853 11.1094 79.653 11.3272 79.653L44.2185 95.5199C44.872 95.8932 45.5254 95.8932 46.1789 95.5199L47.0502 95.1466C47.0502 95.1466 49.6641 94.0266 49.8819 94.0266L82.7732 78.9064L84.7336 77.973C86.0406 77.2264 86.0406 75.5463 84.9515 74.7996C84.9515 74.613 80.1593 71.9996 79.9415 71.9996L49.4463 57.0661C49.4463 57.0661 47.0502 55.9461 46.8324 55.9461C46.8324 55.9461 46.1789 55.5728 45.9611 55.5728C45.3076 55.0128 44.6542 55.0127 44.0007 55.3861Z" fill="#C6C7CC"/>
<path d="M44.2175 55.5728L8.49451 72.1863C8.49451 72.1863 5.8806 73.3064 5.8806 73.493C4.57366 74.2397 4.57366 75.9197 5.8806 76.6664C5.8806 76.8531 11.544 79.4664 11.544 79.4664L44.2175 95.3333C44.871 95.7067 45.5245 95.7067 46.1779 95.3333L47.0492 94.96C47.0492 94.96 49.6631 93.84 49.881 93.6533L82.5545 78.5331L84.5149 77.5997C85.8218 76.8531 85.8218 75.173 84.5149 74.4264C84.5149 74.2397 79.5049 71.813 79.2871 71.813L49.0097 57.0661L46.6136 55.9461C46.6136 55.9461 45.9601 55.5728 45.7423 55.5728C45.5245 55.1995 44.6532 55.1995 44.2175 55.5728Z" fill="#C4C5C9"/>
<path d="M46.1798 55.7594C45.5263 55.3861 44.8729 55.3861 44.2194 55.7594L6.10033 73.493C4.79339 74.2397 4.79339 75.9197 6.10033 76.4797L44.2194 94.96C44.8729 95.3333 45.5263 95.3333 46.1798 94.96L84.2989 77.4131C85.6058 76.6664 85.6058 74.9864 84.2989 74.4264L46.1798 55.7594Z" fill="#C1C2C7"/>
<path d="M6.53476 72.933L42.6933 56.1328C44.8716 55.0128 47.4855 55.1995 49.8815 56.1328L85.1689 72.933C87.1293 73.8664 87.1293 76.1064 85.1689 77.0398L49.8815 93.84C47.7033 94.96 45.0894 94.96 42.6933 93.84L6.53476 77.0398C4.57435 76.1064 4.57435 73.8664 6.53476 72.933Z" fill="url(#paint0_linear_15_24762)"/>
<path d="M86.6926 70.693H5.22657V75.1731H86.6926V70.693Z" fill="url(#paint1_linear_15_24762)"/>
<path d="M6.53476 68.453L42.6933 51.6528C44.8716 50.5327 47.4855 50.7194 49.8815 51.6528L85.1689 68.453C87.1293 69.3863 87.1293 71.6264 85.1689 72.5597L49.8815 89.3599C47.7033 90.48 45.0894 90.48 42.6933 89.3599L6.53476 72.5597C4.57435 71.6264 4.57435 69.1997 6.53476 68.453Z" fill="white"/>
<path d="M85.1688 71.9996L72.0994 78.1597L49.8815 88.7998C47.7033 89.9199 45.0894 89.9199 42.6933 88.7998L19.3863 77.9731L9.1486 73.3063L6.53476 71.9996C4.57435 71.0663 4.57435 68.8263 6.53476 67.8929L42.6933 51.0927C44.8716 49.9727 47.4855 50.1594 49.8815 51.0927L72.7529 62.1062L85.1688 68.0796C86.9114 68.8263 86.9114 71.0663 85.1688 71.9996Z" fill="#F8F6FB"/>
<path d="M57.7228 17.679C57.9406 17.679 59.2476 17.679 59.6832 17.8656C60.1189 18.0523 61.208 18.239 61.4258 18.239C62.2971 18.0523 63.3862 18.6123 63.3862 18.0523C63.3862 17.679 62.5149 17.4923 62.2971 17.4923C62.0792 17.4923 61.8615 17.4923 62.0793 17.3057C62.5149 16.9323 65.7822 16.559 65.7822 16.3723C66.0001 16.1856 65.5645 15.9989 65.3466 15.9989C64.2575 15.8123 64.4753 14.8789 63.1684 14.8789C62.0793 14.8789 60.5545 15.439 60.1188 15.439C59.6832 15.439 57.7228 15.6256 57.7228 15.6256C57.7228 15.6256 57.505 17.679 57.7228 17.679Z" fill="#FFBC90"/>
<path d="M61.8624 15.2523C62.9515 15.0656 63.1693 15.999 64.0406 16.1856C64.2584 16.1856 64.4762 16.1856 64.4762 16.3723C64.4762 16.559 61.4267 17.119 61.2089 17.4923C60.991 17.679 61.4267 17.679 61.4267 17.679C61.6445 17.679 61.8624 17.4923 62.0802 17.4923C61.8624 17.4923 61.6445 17.4923 61.8624 17.3057C62.298 16.9323 65.5653 16.559 65.5653 16.3723C65.7831 16.1856 65.3475 15.9989 65.1297 15.9989C64.0406 15.8123 64.2584 14.8789 62.9515 14.8789C61.8624 14.8789 60.3376 15.439 59.902 15.439C59.4663 15.439 57.5059 15.6256 57.5059 15.6256C57.5059 15.6256 57.5059 15.8123 57.5059 16.1856C58.1594 16.1856 59.2485 16.9323 59.4663 16.9323C60.3376 16.9323 59.4663 15.8123 61.8624 15.2523Z" fill="#FFD1AA"/>
<path d="M46.6142 16.559C51.1885 15.8123 58.3767 15.2523 58.3767 15.2523C58.3767 15.2523 60.1193 16.1856 59.4658 18.4257C59.4658 18.4257 51.6241 20.6657 47.0498 20.479C42.6933 20.2924 43.7825 17.119 46.6142 16.559Z" fill="#BAC1E8"/>
<path d="M32.457 12.4522C32.457 13.7589 32.8927 15.8123 37.6848 18.0523C42.6947 20.2924 45.3086 20.2924 46.1799 20.2924C47.269 20.2924 51.1899 19.1723 46.8334 16.559C42.0413 13.5723 37.0313 11.3322 36.3778 10.9589C34.1996 9.83887 32.2392 11.1456 32.457 12.4522Z" fill="#BAC1E8"/>
<path d="M28.7523 66.5863C28.7523 66.5863 28.9701 69.3863 28.7523 69.9463C28.0988 71.4397 29.4058 72.373 31.1484 72.373C32.4553 72.373 37.0296 73.4931 38.3365 72.1864C39.2078 71.253 37.4652 70.693 35.5048 70.3197C32.8909 69.9463 32.4553 67.893 32.4553 67.893L28.7523 66.5863Z" fill="#0D0848"/>
<path d="M37.0308 32.9858C38.5556 37.8392 36.813 49.9727 36.1595 53.5194C35.506 56.8795 29.6248 57.8128 28.3178 52.5861C27.8822 50.5327 27.0108 43.2526 25.9217 39.1459C24.8326 35.0392 27.0108 33.3592 27.4465 32.6125C28.3178 31.4925 36.3774 30.9325 37.0308 32.9858Z" fill="#1D1273"/>
<path d="M35.9419 53.5195C35.2885 56.8795 33.5458 68.453 33.328 69.013C33.328 69.013 30.2785 69.573 28.3181 68.6397C28.3181 68.6397 27.8824 53.5195 28.5359 52.2128C29.1893 50.7194 36.3776 50.9061 35.9419 53.5195Z" fill="#1D1273"/>
<path d="M30.2782 30.1858C30.2782 30.1858 29.8425 49.9727 28.9712 53.3328C28.0999 56.6928 22.0009 55.9461 21.7831 52.0261C21.5652 50.1594 20.0405 41.5726 19.6048 37.4659C18.9514 33.3592 20.0405 31.3058 20.6939 30.7458C21.5652 29.8125 30.2782 30.1858 30.2782 30.1858Z" fill="#2A4BC0"/>
<path d="M34.4167 9.65222C34.4167 9.65222 32.2385 8.15888 29.6246 8.15888C27.0107 8.15888 27.0108 8.53223 27.0108 8.90556C27.2286 9.2789 27.0107 10.2122 27.882 10.2122C28.7533 10.3989 34.1989 11.3322 34.6345 10.9589C35.288 10.7722 34.4167 9.65222 34.4167 9.65222Z" fill="url(#paint2_linear_15_24762)"/>
<path d="M28.5351 9.8389C28.5351 9.8389 25.2678 9.65221 22.8718 12.2656C20.4757 14.6923 20.4757 32.2392 20.0401 34.1059C20.0401 34.1059 29.4065 34.6659 35.9412 32.2392C35.9412 32.2392 36.5946 17.119 37.0303 15.8123C37.2481 14.6923 37.0302 10.5856 33.9807 10.0256C30.7134 9.46555 28.5351 9.8389 28.5351 9.8389Z" fill="url(#paint3_linear_15_24762)"/>
<path d="M31.3674 30.5591C32.2387 29.6258 32.2387 27.9458 30.7139 27.5724C29.407 27.0124 27.8822 27.3858 26.3574 27.3858L27.6644 22.3457C29.407 22.719 31.1496 21.4123 32.2387 20.2923C32.8922 19.5457 33.3278 18.6123 33.5457 17.679C33.7635 16.559 33.11 15.4389 32.8922 14.3189C32.6743 13.3856 32.8922 12.2655 32.2387 11.3322C31.8031 10.7722 31.1496 10.3989 30.7139 9.83887C31.5852 9.83887 32.6743 9.83887 33.9813 10.2122C37.0308 10.7722 37.2487 14.8789 37.0309 15.9989C36.813 17.3056 35.9417 32.4258 35.9417 32.4258C33.11 33.5458 29.6248 33.5458 26.7931 33.3592H27.011C29.1892 32.6125 30.0605 31.8658 31.3674 30.5591Z" fill="#BAC1E8"/>
<path d="M33.9808 10.0255C33.9808 10.0255 33.1095 11.5189 31.8026 11.5189C30.4956 11.5189 28.7531 10.7722 28.3174 10.0255C28.3174 10.0255 30.2778 8.71887 30.06 7.03885C30.06 5.17216 34.4165 8.15884 33.9808 10.0255Z" fill="#FFB78D"/>
<path d="M37.2481 4.23881C37.2481 4.23881 37.466 5.35881 37.0304 5.91882C36.8125 6.47882 36.3768 6.47881 36.159 7.59882C35.9412 8.71883 34.6343 9.83885 33.1095 10.0255C31.5848 10.2122 30.06 8.15884 29.8422 6.85216C29.6244 6.10548 29.6244 5.17214 30.2779 3.49212C31.5848 1.62543 35.7234 0.692104 37.2481 4.23881Z" fill="#FFD1AA"/>
<path d="M32.0196 0.692081C32.0196 0.692081 33.1087 0.878745 33.7622 2.93211C34.4157 4.98548 35.9404 3.67879 37.2473 4.79881C38.5543 5.73216 37.683 6.47885 37.683 6.47885C37.683 6.47885 39.8613 5.73216 38.5543 3.49213C37.2474 1.06542 34.6335 -1.17462 32.0196 0.692081Z" fill="#1D1273"/>
<path d="M32.02 0.6921C32.02 0.6921 30.4953 -0.054581 29.8419 1.99878C28.9706 4.05213 29.8419 4.23882 29.4063 5.5455C29.4063 5.5455 31.3666 5.73216 32.4557 4.98549C33.7626 4.23881 33.7626 3.67881 33.9804 3.1188C34.1982 2.74546 32.4557 0.505431 32.02 0.6921Z" fill="#1D1273"/>
<path d="M31.1488 5.54553C31.1488 5.54553 30.931 5.17219 30.4954 4.98552C29.8419 4.79885 29.624 4.98552 29.624 5.91886C29.624 6.85219 30.0597 7.03886 30.0597 7.22552C30.0597 7.41219 30.4953 7.59886 30.931 6.85219C31.3666 6.10553 31.1488 5.54553 31.1488 5.54553Z" fill="#FFD1AA"/>
<path d="M29.6234 8.34556C29.6234 8.34556 26.7917 7.97221 27.4452 9.09222C27.8808 10.2122 30.0591 12.0789 30.2769 13.3856C30.2769 13.3856 29.1878 26.0791 28.5343 29.2525C28.0987 32.0525 28.3165 39.3326 28.3165 39.3326C28.3165 39.3326 21.564 40.266 18.2966 37.4659C18.2966 37.4659 18.0788 33.9192 18.5145 29.6258C19.168 23.4657 19.8214 19.359 21.1283 13.9456C21.564 12.4523 21.7818 11.5189 24.3957 10.3989C27.4452 9.09222 26.3561 8.34556 27.4452 7.97223C27.8808 7.78556 29.4056 7.59888 29.8413 7.78554L29.6234 8.34556Z" fill="url(#paint4_linear_15_24762)"/>
<path d="M34.4154 9.65223C34.4154 9.65223 34.6332 10.7722 33.9798 11.8922C33.762 12.0789 33.762 12.4523 33.762 12.6389C33.9798 13.5723 34.1976 15.6256 34.4154 17.4923C34.4154 19.7323 32.8907 27.9458 33.3263 30.7458C33.762 33.5459 33.5442 38.2126 33.5442 38.2126C33.5442 38.2126 35.0689 38.7726 38.3361 36.9059C38.3361 36.9059 37.4649 27.0124 37.6827 22.159C37.9005 17.3056 38.7718 14.879 37.6827 12.6389C36.8114 10.2122 35.7223 11.3322 34.4154 9.65223Z" fill="url(#paint5_linear_15_24762)"/>
<path d="M15.6835 67.5196C15.6835 67.5196 14.8122 69.013 16.7726 70.3197C18.5152 71.6264 20.9113 73.1197 19.1687 73.6797C17.4261 74.2397 15.9013 72.373 12.4162 71.0663C9.14882 69.7597 10.8914 68.6397 11.3271 67.7063C11.7627 67.1463 12.1983 66.5863 12.1983 66.5863L15.6835 67.5196Z" fill="#0D0848"/>
<path d="M29.1878 53.5195C28.0987 54.8261 16.1183 68.453 15.6827 68.8263C15.6827 68.8263 12.6331 68.0796 11.3262 66.3996C11.3262 66.3996 17.2075 53.5195 22.8709 51.2794C24.6135 50.7194 30.9304 51.4661 29.1878 53.5195Z" fill="#2A4BC0"/>
<path opacity="0.46" d="M47.9194 82.8265V82.2665C47.9194 81.8932 47.7016 81.7065 47.2659 81.7065C45.7411 81.5199 44.2164 81.1465 42.9094 80.7732C42.6916 80.7732 42.4738 80.7732 42.256 80.7732L40.7312 81.7065C40.5134 81.8932 40.2956 81.8932 40.0778 81.7065L32.0183 77.9732C31.5826 77.7865 31.5826 77.2265 31.8004 77.0398L33.1074 76.1065C33.3252 75.9198 33.5431 75.5464 33.3252 75.3598C33.1074 75.1731 33.1074 74.9864 32.8896 74.7998C32.6717 74.6131 32.4539 74.4264 32.2361 74.4264H29.6222C29.1866 74.4264 28.9688 74.2398 28.9688 73.8664V67.7064C28.9688 67.333 29.1866 67.1463 29.6222 67.1463H32.0183C32.2361 67.1463 32.454 66.9597 32.6718 66.773C32.6718 66.5863 32.8896 66.5863 32.8896 66.3997C33.1074 66.0263 32.8896 65.653 32.6718 65.653L30.4936 64.7196C30.0579 64.533 30.0579 63.973 30.4936 63.5996L38.553 59.3062C38.7708 59.1196 38.9887 59.1196 39.2065 59.3062L41.3847 60.4262C41.6025 60.6129 41.8203 60.6129 42.0382 60.4262C43.3451 60.0529 44.652 59.6796 46.1768 59.3062C46.6124 59.3062 46.8303 58.9329 46.8303 58.7462V57.6262C46.8303 57.2529 47.0481 57.0662 47.4837 57.0662H57.2858C57.7214 57.0662 57.9392 57.2529 57.9392 57.6262V58.5596C57.9392 58.9329 58.1571 59.1196 58.5927 59.1196C59.8997 59.3062 61.4244 59.4929 62.7314 59.8662C62.9492 59.8662 63.167 59.8662 63.3848 59.8662L64.9096 58.9329C65.1274 58.7462 65.3452 58.7462 65.563 58.9329L73.8404 62.853C74.276 63.0396 74.276 63.5996 73.8404 63.973L72.5334 64.7196C72.3156 64.9063 72.0977 65.2796 72.3156 65.653C72.5334 65.8397 72.5334 66.0263 72.7512 66.213C72.9691 66.3997 73.1869 66.5863 73.4047 66.5863H76.2364C76.6721 66.5863 76.8899 66.773 76.8899 67.1463V73.3064C76.8899 73.6798 76.6721 73.8664 76.2364 73.8664H73.6225C73.4047 73.8664 73.1869 74.0531 72.9691 74.2398C72.9691 74.4264 72.7512 74.4264 72.7512 74.6131C72.5334 74.9864 72.7512 75.3598 73.1869 75.5465L74.9295 76.2931C75.3651 76.4798 75.5829 77.0398 74.9295 77.4131L66.6522 81.8932C66.4343 82.0799 66.2165 82.0799 65.9987 81.8932L64.2562 80.9598C64.0383 80.9598 63.8205 80.7732 63.6026 80.9598C62.2957 81.3332 60.9888 81.7065 59.464 82.0799C59.0284 82.0799 58.8106 82.4532 58.8106 82.6399V83.5732C58.8106 83.9466 58.5927 84.1332 58.1571 84.1332H48.355C48.1372 83.3865 47.9194 83.0132 47.9194 82.8265Z" fill="url(#paint6_linear_15_24762)"/>
<path d="M52.7112 71.4397C49.8795 71.4397 47.2656 71.0664 44.8696 70.5064C42.9092 70.133 41.1666 69.3863 39.6418 68.6397C36.3745 66.9596 34.4141 64.7196 34.4141 62.2929C34.4141 59.8662 36.3745 57.6262 39.6418 55.9462C43.127 54.2661 47.7013 53.1461 52.7112 53.1461C57.7212 53.1461 62.2955 54.0795 65.7806 55.9462C69.048 57.6262 71.0084 59.8662 71.0084 62.2929C71.0084 64.7196 69.048 66.9596 65.7806 68.6397C64.2559 69.3863 62.5133 70.133 60.5529 70.5064C58.1568 71.253 55.5429 71.4397 52.7112 71.4397ZM52.7112 53.5195C47.7013 53.5195 43.127 54.4528 39.6418 56.3195C36.3745 57.9995 34.4141 60.2395 34.4141 62.6662C34.4141 65.0929 36.1567 67.1463 39.6418 69.013C41.1666 69.7597 42.9092 70.3197 44.8696 70.8797C47.2656 71.4397 49.8795 71.813 52.7112 71.813C55.5429 71.813 58.1568 71.4397 60.5529 70.8797C62.5133 70.5064 64.2559 69.7597 65.7806 69.013C69.048 67.333 71.0084 65.0929 71.0084 62.6662C71.0084 60.2395 69.2658 58.1862 65.7806 56.3195C62.2955 54.4528 57.7212 53.5195 52.7112 53.5195Z" fill="#1E1073"/>
<path d="M71.0083 55.1995V62.4796L68.8301 63.7863V56.5062L71.0083 55.1995Z" fill="#2A4BC0"/>
<path d="M36.1569 57.2529V64.533L33.1074 63.0396V55.7595L36.1569 57.2529Z" fill="#2A4BC0"/>
<path d="M75.3641 63.7863V71.0664H72.3145V63.7863H75.3641Z" fill="#2A4BC0"/>
<path d="M71.226 66.0263C70.7904 66.773 70.137 67.333 69.2657 67.893V75.1731C70.137 74.6131 71.6617 73.1197 72.3152 71.0664V63.7863C72.0973 64.5329 71.8795 65.2796 71.226 66.0263Z" fill="#2A4BC0"/>
<path d="M36.5915 68.453V75.7331C34.8489 74.6131 33.9777 73.493 33.542 71.9997V64.7196C33.9777 66.213 34.8489 67.1463 36.5915 68.453Z" fill="#2A4BC0"/>
<path d="M71.8792 69.013V76.293L66.8692 78.9064V71.6263L71.8792 69.013Z" fill="#2A4BC0"/>
<path d="M66.8706 71.6263V78.9064L64.6924 77.7864V70.5063L66.8706 71.6263Z" fill="#2A4BC0"/>
<path d="M64.6933 70.5063V77.5997C63.1685 78.3464 60.5546 79.2798 56.8516 79.4664V72.373C59.6833 72.1864 62.2972 71.4397 64.6933 70.5063Z" fill="#2A4BC0"/>
<path d="M64.6933 77.7864C63.1685 78.5331 60.5546 79.4665 56.8516 79.6531V72.5597C59.9011 75.9197 64.6933 77.7864 64.6933 77.7864Z" fill="url(#paint7_linear_15_24762)"/>
<path d="M50.0975 72.5597V79.8398C47.048 79.8398 43.1272 78.9065 42.0381 78.3464V71.0664C43.1272 71.6264 47.048 72.5597 50.0975 72.5597Z" fill="#2A4BC0"/>
<path d="M50.0975 79.8398C47.048 79.8398 43.1272 78.9065 42.0381 78.3464V71.0664C42.9094 74.6131 50.0975 79.8398 50.0975 79.8398Z" fill="url(#paint8_linear_15_24762)"/>
<path d="M57.0689 74.2397H50.0987V81.5198H57.0689V74.2397Z" fill="#2A4BC0"/>
<path d="M55.542 50.7195V52.5862C55.542 52.5862 60.1162 52.7728 63.6014 54.0795L65.7796 52.7729L71.2252 55.1995L69.047 56.5062C69.9183 56.8796 71.6609 58.1862 72.3143 60.2396H75.5817V63.7863H72.5322C72.0965 65.2797 71.2252 66.5863 69.4827 67.893L72.0965 68.8264L67.0866 71.6264L64.6905 70.5064C62.2945 71.4397 59.6806 71.9997 56.8489 72.3731V74.2398H49.8786V72.5597C46.8291 72.5597 43.126 71.6264 41.8191 71.0664L39.6409 72.3731L34.1953 69.9464L36.1557 68.453C34.4131 67.333 33.5418 66.213 33.1062 64.7196H30.0567V61.1729H32.8883C33.1062 60.2396 33.9775 58.5596 35.7201 57.2529L32.8883 55.9462L37.8983 53.1462L40.73 54.4529C43.126 53.5195 45.7399 52.7728 48.5716 52.5862V50.7195H55.542Z" fill="#06207C"/>
<path opacity="0.2" d="M70.1383 69.9464L66.871 71.813L64.4749 70.693C63.8214 70.8797 63.168 71.253 62.5145 71.4397L42.2569 54.0795C44.2173 53.5195 46.3955 52.9595 48.5738 52.7728V51.6528C51.8411 54.0795 64.4749 64.9063 70.1383 69.9464Z" fill="url(#paint9_linear_15_24762)"/>
<path d="M35.2856 57.8129C35.9391 58.3729 36.3748 58.7462 37.0282 59.3062C40.5134 62.293 43.7807 65.093 47.2659 68.0797C49.6619 70.133 52.058 72.1864 54.4541 74.2398H57.0679V73.4931L35.2856 54.8262L33.3252 55.9462L36.1569 57.2529C35.7212 57.4395 35.5034 57.6262 35.2856 57.8129Z" fill="url(#paint10_linear_15_24762)"/>
<path d="M38.5517 65.653C36.8091 64.1596 35.0665 62.6662 33.1061 60.9862H30.2744V64.5329H33.3239C33.9774 66.0263 34.6309 66.9596 36.3735 68.2663L34.4131 69.7597L39.8587 72.1864L42.0369 70.8797C42.6904 71.2531 44.4329 71.6264 46.1755 71.9997L38.5517 65.653Z" fill="url(#paint11_linear_15_24762)"/>
<path opacity="0.55" d="M60.5538 58.5595C63.8212 61.3595 67.0885 64.1596 70.3559 66.9596C70.138 67.1463 69.9202 67.333 69.7024 67.7063L51.8409 52.3994H54.4548L60.5538 58.5595Z" fill="url(#paint12_linear_15_24762)"/>
<path d="M75.3664 60.2396V63.7862H74.2773C70.3564 60.4262 66.2178 56.8795 62.2969 53.5195C62.7326 53.7062 63.1682 53.7061 63.6039 53.8928L65.1287 52.9595L70.5743 55.3862L68.8317 56.3195C69.703 56.6928 71.4456 57.9995 72.099 60.0529L75.3664 60.2396Z" fill="url(#paint13_linear_15_24762)"/>
<path d="M33.3249 64.7196H30.2754V71.9997H33.3249V64.7196Z" fill="#2A4BC0"/>
<path d="M42.0386 71.0664V78.3465L39.8604 79.6532V72.3731L42.0386 71.0664Z" fill="#2A4BC0"/>
<path d="M39.8597 72.3731V79.6532L34.4141 77.0398V69.7597L39.8597 72.3731Z" fill="#2A4BC0"/>
<path d="M22.8733 11.7056C19.3881 14.3189 22.8733 25.8924 26.3584 27.5724C27.4476 28.1324 29.6258 27.5724 29.408 24.0257C28.9724 20.479 27.6654 13.1989 27.4476 12.6389C26.7941 10.2122 23.9624 10.9589 22.8733 11.7056Z" fill="url(#paint14_linear_15_24762)"/>
<path d="M27.4472 21.7857C27.4472 22.1591 27.4472 22.5324 27.4472 22.9057C27.665 22.9057 27.8829 23.0924 28.3186 23.2791C28.972 23.6524 29.4077 24.2124 29.4077 24.9591C29.4077 24.7724 29.4077 24.5858 29.4077 24.2124C28.972 20.6657 27.665 13.3856 27.4472 12.8256C27.0116 10.5856 24.8333 10.7722 23.5264 11.3322C24.8333 11.5189 26.7937 11.1456 26.3581 12.6389L25.4868 14.1323C25.4868 16.1856 27.8829 17.8657 27.8829 19.919C27.8829 20.6657 27.4472 21.2257 27.4472 21.7857Z" fill="#BAC1E8"/>
<path d="M39.8633 24.9591C39.8633 24.9591 40.9524 24.5858 41.8237 24.5858C42.695 24.3991 43.1307 24.5858 43.5664 24.3991C43.7842 24.3991 43.7841 24.9591 42.695 25.1458C41.3881 25.3324 44.4376 24.9591 45.0911 25.5191C45.7446 25.8924 46.1802 26.0791 45.7446 26.2658C45.3089 26.4524 44.8733 25.7058 44.2198 25.8924C44.2198 25.8924 45.7445 26.2658 45.9624 27.1991C45.9624 27.3858 45.0911 28.1324 44.2198 27.7591C43.5663 27.3858 43.3485 27.5725 42.695 27.5725C42.0415 27.5725 40.0811 27.7591 40.0811 27.7591L39.8633 24.9591Z" fill="#FFD1AA"/>
<path d="M28.3188 23.6524C32.6753 24.0258 40.0813 24.3991 40.0813 24.3991C40.0813 24.3991 41.3882 25.5191 40.5169 27.5725C40.5169 27.5725 31.804 28.6925 27.6653 28.1325C23.5266 27.5725 25.9227 23.4658 28.3188 23.6524Z" fill="url(#paint15_linear_15_24762)"/>
<path d="M26.7931 24.2124C28.3179 24.0258 29.8426 24.3991 31.3674 24.7725C32.4565 25.1458 34.1991 25.7058 35.2882 25.7058C36.1595 25.7058 37.2486 25.1458 38.1199 24.9591C38.7734 24.7724 39.4269 24.7725 40.0803 24.7725C39.8625 24.5858 39.8625 24.3991 39.8625 24.3991C39.8625 24.3991 32.4565 24.0258 28.1001 23.6524C27.2288 23.6524 26.5753 23.8391 26.1397 24.3991C26.5753 24.3991 26.5753 24.3991 26.7931 24.2124Z" fill="#BAC1E8"/>
<path d="M55.1853 55.5795C55.7043 55.2831 56.0502 54.9866 56.0502 54.5419V29.6381C56.0502 29.7863 56.0502 29.9345 55.8772 29.9345V30.0828C55.7042 30.231 55.5313 30.3793 55.1853 30.5275C54.1475 31.1204 52.2447 31.1204 51.0339 30.5275C50.6879 30.3793 50.5149 30.231 50.342 30.0828V29.9345C50.342 29.7863 50.169 29.6381 50.169 29.6381V54.5419C50.169 54.9866 50.5149 55.2831 51.0339 55.5795C52.0717 56.1725 53.9745 56.1725 55.1853 55.5795Z" fill="url(#paint16_linear_15_24762)"/>
<path d="M55.1853 30.6757C54.1475 31.2687 52.2447 31.2687 51.0339 30.6757C50.6879 30.5275 50.5149 30.3792 50.342 30.231V30.0828C50.342 29.9346 50.169 29.7863 50.169 29.7863C50.169 29.4898 50.5149 29.0451 51.0339 28.7486C52.0717 28.1557 53.9745 28.1557 55.1853 28.7486C55.8773 29.1934 56.2232 29.6381 55.8773 30.0828V30.231C55.5313 30.3792 55.3583 30.5275 55.1853 30.6757Z" fill="url(#paint17_linear_15_24762)"/>
<path d="M57.7793 22.3745L67.2931 16.8897V22.5227L57.9523 28.0075C57.9523 27.8592 57.9523 22.5227 57.7793 22.3745Z" fill="url(#paint18_linear_15_24762)"/>
<path d="M56.5699 30.3793C55.1861 30.9723 53.4564 31.2687 51.7266 30.9722V25.3393C53.4564 25.4875 55.1861 25.3393 56.5699 24.7463C56.9159 24.5981 57.2619 24.3016 57.6078 24.0051L57.7808 23.8569C57.9538 23.5604 58.1268 23.4122 58.1268 23.1157V28.7487C57.9538 29.1934 57.6078 29.7864 56.5699 30.3793Z" fill="url(#paint19_linear_15_24762)"/>
<path d="M51.7268 25.3392V30.9722L40.6563 35.7158V30.0828L51.7268 25.3392Z" fill="url(#paint20_linear_15_24762)"/>
<path d="M40.6559 35.7158V30.0829L38.5801 29.0452V34.6782L40.6559 35.7158Z" fill="#C9294D"/>
<path d="M57.9537 22.9675C57.9537 23.2639 57.7807 23.5604 57.6077 23.7087L57.4347 23.8569C57.2618 24.1534 56.9158 24.3016 56.3969 24.5981C55.0131 25.191 53.2833 25.4875 51.5535 25.191L40.483 29.9346L38.4073 28.897L47.7481 23.4122L47.921 23.2639C47.748 23.1157 47.7481 22.8192 47.7481 22.671C47.7481 22.078 48.267 21.3368 49.1319 20.8921C50.5157 20.2992 52.2454 20.0027 53.9752 20.2992L65.2187 15.5556L67.2944 16.5933L57.7807 22.078C57.9537 22.5227 57.9537 22.8192 57.9537 22.9675Z" fill="#C9294D"/>
<defs>
<linearGradient id="paint0_linear_15_24762" x1="5.13329" y1="75.0174" x2="86.5021" y2="75.0174" gradientUnits="userSpaceOnUse">
<stop offset="8e-08" stop-color="#C8D6F9"/>
<stop offset="1" stop-color="#BAC1E8"/>
</linearGradient>
<linearGradient id="paint1_linear_15_24762" x1="5.13203" y1="72.8791" x2="86.5011" y2="72.8791" gradientUnits="userSpaceOnUse">
<stop offset="8e-08" stop-color="#C8D6F9"/>
<stop offset="1" stop-color="#BAC1E8"/>
</linearGradient>
<linearGradient id="paint2_linear_15_24762" x1="26.9907" y1="9.59211" x2="34.9251" y2="9.59211" gradientUnits="userSpaceOnUse">
<stop stop-color="#FF6279"/>
<stop offset="1" stop-color="#FFAD60"/>
</linearGradient>
<linearGradient id="paint3_linear_15_24762" x1="36.9286" y1="21.8313" x2="19.9174" y2="21.8313" gradientUnits="userSpaceOnUse">
<stop stop-color="#F0F0FB"/>
<stop offset="1" stop-color="#D2D7F6"/>
</linearGradient>
<linearGradient id="paint4_linear_15_24762" x1="18.3766" y1="23.7381" x2="30.1972" y2="23.7381" gradientUnits="userSpaceOnUse">
<stop stop-color="#FF6279"/>
<stop offset="1" stop-color="#FFAD60"/>
</linearGradient>
<linearGradient id="paint5_linear_15_24762" x1="33.3932" y1="23.8548" x2="38.4825" y2="23.8548" gradientUnits="userSpaceOnUse">
<stop stop-color="#FF6279"/>
<stop offset="1" stop-color="#FFAD60"/>
</linearGradient>
<linearGradient id="paint6_linear_15_24762" x1="28.7644" y1="69.9533" x2="77.0195" y2="69.9533" gradientUnits="userSpaceOnUse">
<stop stop-color="#8390AC"/>
<stop offset="0.9441" stop-color="#8390AC" stop-opacity="0"/>
</linearGradient>
<linearGradient id="paint7_linear_15_24762" x1="61.9851" y1="75.9963" x2="53.8312" y2="75.9963" gradientUnits="userSpaceOnUse">
<stop offset="0.0406684" stop-color="white"/>
<stop offset="0.9776" stop-color="#9D9DC2"/>
</linearGradient>
<linearGradient id="paint8_linear_15_24762" x1="40.849" y1="75.4549" x2="45.087" y2="75.4549" gradientUnits="userSpaceOnUse">
<stop offset="0.0223939" stop-color="#9D9DC2"/>
<stop offset="0.9593" stop-color="white"/>
</linearGradient>
<linearGradient id="paint9_linear_15_24762" x1="31.8551" y1="41.4006" x2="64.1235" y2="78.2733" gradientUnits="userSpaceOnUse">
<stop stop-color="white"/>
<stop offset="1"/>
</linearGradient>
<linearGradient id="paint10_linear_15_24762" x1="33.1305" y1="35.8916" x2="43.831" y2="71.1773" gradientUnits="userSpaceOnUse">
<stop stop-color="white"/>
<stop offset="1"/>
</linearGradient>
<linearGradient id="paint11_linear_15_24762" x1="25.7374" y1="38.1356" x2="36.4368" y2="73.4174" gradientUnits="userSpaceOnUse">
<stop stop-color="white"/>
<stop offset="1"/>
</linearGradient>
<linearGradient id="paint12_linear_15_24762" x1="42.8044" y1="43.7376" x2="67.4653" y2="71.917" gradientUnits="userSpaceOnUse">
<stop stop-color="white"/>
<stop offset="1"/>
</linearGradient>
<linearGradient id="paint13_linear_15_24762" x1="64.8076" y1="61.2085" x2="69.2562" y2="57.4449" gradientUnits="userSpaceOnUse">
<stop stop-color="white"/>
<stop offset="1"/>
</linearGradient>
<linearGradient id="paint14_linear_15_24762" x1="34.7924" y1="18.8051" x2="22.9366" y2="20.0082" gradientUnits="userSpaceOnUse">
<stop stop-color="#F0F0FB"/>
<stop offset="1" stop-color="#D2D7F6"/>
</linearGradient>
<linearGradient id="paint15_linear_15_24762" x1="35.4752" y1="25.5428" x2="23.6183" y2="26.7459" gradientUnits="userSpaceOnUse">
<stop stop-color="#F0F0FB"/>
<stop offset="1" stop-color="#D2D7F6"/>
</linearGradient>
<linearGradient id="paint16_linear_15_24762" x1="55.9456" y1="42.7996" x2="50.165" y2="42.7996" gradientUnits="userSpaceOnUse">
<stop offset="8e-08" stop-color="#C8D6F9"/>
<stop offset="1" stop-color="#BAC1E8"/>
</linearGradient>
<linearGradient id="paint17_linear_15_24762" x1="54.1131" y1="28.0867" x2="52.439" y2="31.3544" gradientUnits="userSpaceOnUse">
<stop offset="2e-06" stop-color="#CACCED"/>
<stop offset="1" stop-color="white"/>
</linearGradient>
<linearGradient id="paint18_linear_15_24762" x1="57.8587" y1="22.3158" x2="67.4027" y2="22.3158" gradientUnits="userSpaceOnUse">
<stop offset="8e-08" stop-color="#D82C53"/>
<stop offset="1" stop-color="#FF5774"/>
</linearGradient>
<linearGradient id="paint19_linear_15_24762" x1="51.7873" y1="27.0349" x2="58.0105" y2="27.0349" gradientUnits="userSpaceOnUse">
<stop offset="8e-08" stop-color="#D82C53"/>
<stop offset="1" stop-color="#FF5774"/>
</linearGradient>
<linearGradient id="paint20_linear_15_24762" x1="40.6488" y1="30.5498" x2="51.7994" y2="30.5498" gradientUnits="userSpaceOnUse">
<stop offset="8e-08" stop-color="#D82C53"/>
<stop offset="1" stop-color="#FF5774"/>
</linearGradient>
</defs>
</svg>
