<svg width="23" height="23" viewBox="0 0 23 23" fill="none" xmlns="http://www.w3.org/2000/svg">
<g id="debug-step-over">
<path id="Vector" d="M11.3425 13.4051C11.8358 13.4051 12.3088 13.601 12.6576 13.9498C13.0063 14.2985 13.2023 14.7716 13.2023 15.2648C13.2023 15.758 13.0063 16.231 12.6576 16.5798C12.3088 16.9286 11.8358 17.1245 11.3425 17.1245C10.8493 17.1245 10.3763 16.9286 10.0275 16.5798C9.67873 16.231 9.4828 15.758 9.4828 15.2648C9.4828 14.7716 9.67873 14.2985 10.0275 13.9498C10.3763 13.601 10.8493 13.4051 11.3425 13.4051ZM21.9988 8.62554L20.5203 15.0323L14.1321 13.5538L17.6656 11.3408C16.3545 9.22066 14.0112 7.82586 11.3425 7.82586C7.66956 7.82586 4.6196 10.4853 4.01519 13.9909L2.18335 13.6654C2.93654 9.29505 6.74899 5.96613 11.3425 5.96613C14.6715 5.96613 17.6005 7.72357 19.2464 10.3551L21.9988 8.62554Z" fill="#3661F6"/>
</g>
</svg>
