<svg width="23" height="23" viewBox="0 0 23 23" fill="none" xmlns="http://www.w3.org/2000/svg">
<g id="email-open-multiple-outline" clip-path="url(#clip0_57_1753)">
<path id="Vector" d="M2.05913 7.78061V20.7987H18.7967V22.6585H2.05913C1.03163 22.6585 0.199402 21.8309 0.199402 20.7987V7.78061H2.05913ZM21.6142 6.19054L13.2175 0.936798L4.82084 6.19054C4.28151 6.51599 3.91887 7.10181 3.91887 7.78061V17.0793C3.91887 18.1021 4.75575 18.939 5.7786 18.939H20.6565C21.6793 18.939 22.5162 18.1021 22.5162 17.0793V7.78061C22.5162 7.10181 22.1535 6.51599 21.6142 6.19054ZM20.6565 17.0793H5.7786V9.64034L13.2175 14.2897L20.6565 9.64034V17.0793ZM13.2175 12.4299L5.7786 7.78061L13.2175 3.13128L20.6565 7.78061L13.2175 12.4299Z" fill="#F08200"/>
</g>
<defs>
<clipPath id="clip0_57_1753">
<rect width="22.3168" height="22.3168" fill="white" transform="translate(0.199341 0.341614)"/>
</clipPath>
</defs>
</svg>
