<svg width="23" height="23" viewBox="0 0 23 23" fill="none" xmlns="http://www.w3.org/2000/svg">
<g id="email-fast-outline" clip-path="url(#clip0_57_1746)">
<path id="Vector" d="M20.6412 5.45586H8.55294C7.53009 5.45586 6.69321 6.29274 6.69321 7.31559V15.6844C6.69321 16.7165 7.53009 17.5441 8.55294 17.5441H20.6412C21.6733 17.5441 22.5009 16.7165 22.5009 15.6844V7.31559C22.5009 6.29274 21.6733 5.45586 20.6412 5.45586ZM20.6412 15.6844H8.55294V8.86846L14.5971 11.9649L20.6412 8.86846V15.6844ZM14.5971 10.3934L8.55294 7.31559H20.6412L14.5971 10.3934ZM4.83347 15.6844C4.83347 15.8425 4.86137 15.9912 4.87997 16.1493H1.11401C0.600723 16.1493 0.184143 15.7309 0.184143 15.2194C0.184143 14.708 0.600723 14.2896 1.11401 14.2896H4.83347V15.6844ZM2.97374 6.85066H4.87997C4.86137 7.00873 4.83347 7.15751 4.83347 7.31559V8.71039H2.97374C2.46231 8.71039 2.04388 8.29195 2.04388 7.78052C2.04388 7.2691 2.46231 6.85066 2.97374 6.85066ZM1.11401 11.5C1.11401 10.9886 1.53245 10.5701 2.04388 10.5701H4.83347V12.4299H2.04388C1.53245 12.4299 1.11401 12.0114 1.11401 11.5Z" fill="#3661F6"/>
</g>
<defs>
<clipPath id="clip0_57_1746">
<rect width="22.3168" height="22.3168" fill="white" transform="translate(0.184143 0.341614)"/>
</clipPath>
</defs>
</svg>
