<svg width="23" height="23" viewBox="0 0 23 23" fill="none" xmlns="http://www.w3.org/2000/svg">
<g id="eye-outline">
<path id="Vector" d="M11.3427 8.75573C12.0825 8.75573 12.7921 9.04963 13.3152 9.57279C13.8384 10.0959 14.1323 10.8055 14.1323 11.5453C14.1323 12.2852 13.8384 12.9947 13.3152 13.5179C12.7921 14.041 12.0825 14.3349 11.3427 14.3349C10.6028 14.3349 9.89327 14.041 9.37012 13.5179C8.84697 12.9947 8.55306 12.2852 8.55306 11.5453C8.55306 10.8055 8.84697 10.0959 9.37012 9.57279C9.89327 9.04963 10.6028 8.75573 11.3427 8.75573ZM11.3427 4.57133C15.992 4.57133 19.9625 7.46322 21.5712 11.5453C19.9625 15.6274 15.992 18.5193 11.3427 18.5193C6.69333 18.5193 2.7228 15.6274 1.11414 11.5453C2.7228 7.46322 6.69333 4.57133 11.3427 4.57133ZM3.14124 11.5453C4.67552 14.6697 7.84637 16.6596 11.3427 16.6596C14.839 16.6596 18.0098 14.6697 19.5441 11.5453C18.0098 8.42098 14.839 6.43107 11.3427 6.43107C7.84637 6.43107 4.67552 8.42098 3.14124 11.5453Z" fill="#3661F6"/>
</g>
</svg>
