<svg width="20" height="20" viewBox="0 0 20 20" fill="none" xmlns="http://www.w3.org/2000/svg">
<g id="info">
<mask id="mask0_58_2203" style="mask-type:alpha" maskUnits="userSpaceOnUse" x="0" y="0" width="20" height="20">
<rect id="Bounding box" width="20" height="20" fill="#D9D9D9"/>
</mask>
<g mask="url(#mask0_58_2203)">
<path id="info_2" d="M9.37504 13.9583H10.625V9.16667H9.37504V13.9583ZM10 7.7404C10.1907 7.7404 10.3506 7.6759 10.4796 7.5469C10.6086 7.4179 10.6731 7.25805 10.6731 7.06734C10.6731 6.87664 10.6086 6.71679 10.4796 6.58778C10.3506 6.45878 10.1907 6.39428 10 6.39428C9.80931 6.39428 9.64946 6.45878 9.52046 6.58778C9.39146 6.71679 9.32696 6.87664 9.32696 7.06734C9.32696 7.25805 9.39146 7.4179 9.52046 7.5469C9.64946 7.6759 9.80931 7.7404 10 7.7404ZM10.0014 17.9167C8.90647 17.9167 7.87728 17.7089 6.91383 17.2933C5.95037 16.8778 5.1123 16.3138 4.39962 15.6014C3.68693 14.8891 3.12271 14.0514 2.70698 13.0883C2.29124 12.1253 2.08337 11.0963 2.08337 10.0014C2.08337 8.90646 2.29115 7.87726 2.70671 6.91382C3.12226 5.95036 3.68622 5.11229 4.39858 4.39961C5.11096 3.68692 5.94866 3.1227 6.91169 2.70696C7.8747 2.29123 8.90368 2.08336 9.99862 2.08336C11.0936 2.08336 12.1228 2.29114 13.0862 2.70669C14.0497 3.12225 14.8877 3.68621 15.6004 4.39857C16.3131 5.11094 16.8773 5.94864 17.2931 6.91167C17.7088 7.87469 17.9167 8.90367 17.9167 9.99861C17.9167 11.0936 17.7089 12.1227 17.2933 13.0862C16.8778 14.0497 16.3138 14.8877 15.6015 15.6004C14.8891 16.3131 14.0514 16.8773 13.0884 17.293C12.1253 17.7088 11.0964 17.9167 10.0014 17.9167ZM10 16.6667C11.8611 16.6667 13.4375 16.0208 14.7292 14.7292C16.0209 13.4375 16.6667 11.8611 16.6667 10C16.6667 8.13889 16.0209 6.56251 14.7292 5.27084C13.4375 3.97917 11.8611 3.33334 10 3.33334C8.13891 3.33334 6.56252 3.97917 5.27085 5.27084C3.97919 6.56251 3.33335 8.13889 3.33335 10C3.33335 11.8611 3.97919 13.4375 5.27085 14.7292C6.56252 16.0208 8.13891 16.6667 10 16.6667Z" fill="#87909B"/>
</g>
</g>
</svg>
