<svg width="23" height="23" viewBox="0 0 23 23" fill="none" xmlns="http://www.w3.org/2000/svg">
<g id="message-alert-outline">
<path id="Vector" d="M12.2723 9.72138H10.4126V6.07322H12.2723V9.72138ZM12.2723 11.5455H10.4126V13.3695H12.2723V11.5455ZM20.6411 4.24914V15.1936C20.6411 15.6774 20.4452 16.1414 20.0964 16.4834C19.7477 16.8255 19.2746 17.0177 18.7814 17.0177H5.76329L2.04382 20.6659V4.24914C2.04382 3.76537 2.23976 3.30141 2.58853 2.95932C2.93729 2.61724 3.41032 2.42506 3.90356 2.42506H18.7814C19.2746 2.42506 19.7477 2.61724 20.0964 2.95932C20.4452 3.30141 20.6411 3.76537 20.6411 4.24914ZM18.7814 4.24914H3.90356V16.2881L5.01939 15.1936H18.7814V4.24914Z" fill="#FF6C4B"/>
</g>
</svg>
