<svg width="23" height="23" viewBox="0 0 23 23" fill="none" xmlns="http://www.w3.org/2000/svg">
<g id="thumb-down-outline">
<path id="Vector" d="M17.8516 14.335V3.17659H21.5711V14.335H17.8516ZM14.1321 3.17659C14.6254 3.17659 15.0984 3.37253 15.4472 3.72129C15.7959 4.07006 15.9919 4.54309 15.9919 5.03632V14.335C15.9919 14.8464 15.7873 15.3113 15.4432 15.6461L9.32473 21.7739L8.33907 20.7883C8.08801 20.5372 7.92993 20.1931 7.92993 19.8026L7.95783 19.5143L8.8412 15.2648H2.97375C1.94159 15.2648 1.11401 14.428 1.11401 13.4051V11.5454C1.11401 11.3036 1.16051 11.0805 1.24419 10.8666L4.05239 4.31103C4.33135 3.64152 4.99155 3.17659 5.76334 3.17659H14.1321ZM14.1321 5.03632H5.73545L2.97375 11.5454V13.4051H11.138L10.0872 18.352L14.1321 14.3071V5.03632Z" fill="#CE0000"/>
</g>
</svg>
